<?xml version="1.0" standalone="no"?>
<svg xmlns:xlink="http://www.w3.org/1999/xlink" xmlns="http://www.w3.org/2000/svg" class="vtree" width="960" height="800"><style>
.vtree-node text { font: 14px sans-serif; }
.vtree-link { fill: none; stroke: #888; stroke-width: 2px; }
.vtree-table { stroke-width: 2px; stroke: steelblue; }
path.vtree-table { fill: white; }
g.vtree-node rect { fill: white; stroke: black; stroke-width: 1px; }
g.vtree-node rect.number-text { fill: #d8f0ed; }
g.vtree-node rect.string-text { fill: #e7f0db; }
g.vtree-node rect.boolean-text { fill: #e1d8f0; }
g.vtree-node rect.null-text { fill: #888; }
</style><g class="vtree-root"><g class="vtree-node" transform="translate(480,270)"><g class="vtree-node" transform="translate(-8,0)"><path class="vtree-link" d="M8,4C8,43 299,43 299,82"/><path class="vtree-link" d="M8,4C8,53.5 -55,53.5 -55,103"/><path class="vtree-link" d="M8,4C8,47 -394,47 -394,90"/><g class="vtree-node" transform="translate(-284,58)"><path class="vtree-link" d="M-1,32C-1,32 109,32 109,32"/><path class="vtree-link" d="M-110,32C-110,32 -1,32 -1,32"/><g class="vtree-node" transform="translate(-163,0)"><g transform="translate(0,20)"><g transform="translate(0,0)"><rect class="string-text" x="0" y="0" width="42" height="24"/><text x="4" y="20">value</text></g><g transform="translate(42,0)"><rect class="string-text" x="0" y="0" width="63" height="24"/><text x="4" y="20">e1.name</text></g></g><g><text x="53" y="16" text-anchor="middle">select[0]</text></g></g><g class="vtree-node" transform="translate(-48,0)"><g transform="translate(0,20)"><g transform="translate(0,0)"><rect class="string-text" x="0" y="0" width="42" height="25"/><text x="4" y="20">value</text></g><g transform="translate(42,0)"><rect class="string-text" x="0" y="0" width="51" height="25"/><text x="4" y="21">e1.age</text></g></g><g><text x="47" y="16" text-anchor="middle">select[1]</text></g></g><g class="vtree-node" transform="translate(55,0)"><g transform="translate(0,20)"><g transform="translate(0,0)"><rect class="string-text" x="0" y="0" width="42" height="25"/><text x="4" y="20">value</text></g><g transform="translate(42,0)"><rect class="string-text" x="0" y="0" width="65" height="25"/><text x="4" y="21">e2.salary</text></g></g><g><text x="54" y="16" text-anchor="middle">select[2]</text></g></g></g><g class="vtree-node" transform="translate(6,58)"><path class="vtree-link" d="M-61,45C-61,45 62,45 62,45"/><g class="vtree-node" transform="translate(-118,0)"><g transform="translate(0,20)"><g transform="translate(0,0)"><rect class="string-text" x="0" y="0" width="44" height="25"/><text x="4" y="20">value</text></g><g transform="translate(44,0)"><rect class="string-text" x="0" y="0" width="69" height="25"/><text x="4" y="21">employee</text></g><g transform="translate(0,25)"><rect class="string-text" x="0" y="0" width="44" height="24"/><text x="4" y="20">name</text></g><g transform="translate(44,25)"><rect class="string-text" x="0" y="0" width="69" height="24"/><text x="4" y="20">e1</text></g></g><g><text x="57" y="16" text-anchor="middle">from[0]</text></g></g><g class="vtree-node" transform="translate(5,0)"><g transform="translate(0,20)"><g transform="translate(0,0)"><rect class="string-text" x="0" y="0" width="44" height="25"/><text x="4" y="20">value</text></g><g transform="translate(44,0)"><rect class="string-text" x="0" y="0" width="69" height="25"/><text x="4" y="21">employee</text></g><g transform="translate(0,25)"><rect class="string-text" x="0" y="0" width="44" height="24"/><text x="4" y="20">name</text></g><g transform="translate(44,25)"><rect class="string-text" x="0" y="0" width="69" height="24"/><text x="4" y="20">e2</text></g></g><g><text x="57" y="16" text-anchor="middle">from[1]</text></g></g></g><g class="vtree-node" transform="translate(275,58)"><path class="vtree-link" d="M24,24C24,63 -96,63 -96,102"/><g class="vtree-node" transform="translate(24,78)"><path class="vtree-link" d="M-16,24C-16,24 103,24 103,24"/><path class="vtree-link" d="M-120,24C-120,24 -16,24 -16,24"/><g class="vtree-node" transform="translate(-144,0)"><path class="vtree-link" d="M24,24C24,67 0,67 0,110"/><g class="vtree-node" transform="translate(24,78)"><path class="vtree-link" d="M-24,32C-24,32 26,32 26,32"/><g class="vtree-node" transform="translate(-45,0)"><g transform="translate(1,20)"><rect class="string-text" x="0" y="0" width="39" height="24"/><text x="4" y="20">e1.id</text></g><g><text x="20" y="16" text-anchor="middle">eq[0]</text></g></g><g class="vtree-node" transform="translate(5,0)"><g transform="translate(1,20)"><rect class="string-text" x="0" y="0" width="39" height="24"/><text x="4" y="20">e2.id</text></g><g><text x="20" y="16" text-anchor="middle">eq[1]</text></g></g></g><g transform="translate(16,20)"><g transform="translate(0,0)"><rect class="string-text" x="0" y="0" width="8" height="8"/><text x="4" y="4"> </text></g><g transform="translate(8,0)"><rect class="string-text" x="0" y="0" width="8" height="8"/><text x="4" y="4"> </text></g></g><g><text x="24" y="16" text-anchor="middle">and[0]</text></g></g><g class="vtree-node" transform="translate(-40,0)"><path class="vtree-link" d="M24,24C24,68 1,68 1,112"/><g class="vtree-node" transform="translate(24,78)"><path class="vtree-link" d="M-23,33C-23,33 30,33 30,33"/><g class="vtree-node" transform="translate(-49,0)"><g transform="translate(0,21)"><rect class="string-text" x="0" y="0" width="51" height="25"/><text x="4" y="21">e1.age</text></g><g><text x="26" y="17" text-anchor="middle">gt[0]</text></g></g><g class="vtree-node" transform="translate(12,0)"><g transform="translate(6,21)"><rect class="number-text" x="0" y="0" width="24" height="24"/><text x="4" y="20">17</text></g><g><text x="18" y="17" text-anchor="middle">gt[1]</text></g></g></g><g transform="translate(16,20)"><g transform="translate(0,0)"><rect class="string-text" x="0" y="0" width="8" height="8"/><text x="4" y="4"> </text></g><g transform="translate(8,0)"><rect class="string-text" x="0" y="0" width="8" height="8"/><text x="4" y="4"> </text></g></g><g><text x="24" y="16" text-anchor="middle">and[1]</text></g></g><g class="vtree-node" transform="translate(79,0)"><path class="vtree-link" d="M24,24C24,68 -4,68 -4,112"/><g class="vtree-node" transform="translate(24,78)"><path class="vtree-link" d="M-28,33C-28,33 38,33 38,33"/><g class="vtree-node" transform="translate(-61,0)"><g transform="translate(0,21)"><rect class="string-text" x="0" y="0" width="65" height="25"/><text x="4" y="21">e2.salary</text></g><g><text x="33" y="17" text-anchor="middle">gt[0]</text></g></g><g class="vtree-node" transform="translate(14,0)"><g transform="translate(0,21)"><rect class="number-text" x="0" y="0" width="47" height="24"/><text x="4" y="20">35000</text></g><g><text x="24" y="17" text-anchor="middle">gt[1]</text></g></g></g><g transform="translate(16,20)"><g transform="translate(0,0)"><rect class="string-text" x="0" y="0" width="8" height="8"/><text x="4" y="4"> </text></g><g transform="translate(8,0)"><rect class="string-text" x="0" y="0" width="8" height="8"/><text x="4" y="4"> </text></g></g><g><text x="24" y="16" text-anchor="middle">and[2]</text></g></g></g><g transform="translate(16,20)"><g transform="translate(0,0)"><rect class="string-text" x="0" y="0" width="8" height="8"/><text x="4" y="4"> </text></g><g transform="translate(8,0)"><rect class="string-text" x="0" y="0" width="8" height="8"/><text x="4" y="4"> </text></g></g><g><text x="24" y="16" text-anchor="middle">where</text></g></g><g transform="translate(0,0)"><rect class="string-text" x="0" y="0" width="8" height="8"/><text x="4" y="4"> </text></g><g transform="translate(8,0)"><rect class="string-text" x="0" y="0" width="8" height="8"/><text x="4" y="4"> </text></g></g></g></g></svg>