<?xml version="1.0" standalone="no"?>
<svg xmlns:xlink="http://www.w3.org/1999/xlink" xmlns="http://www.w3.org/2000/svg" class="vtree" width="960" height="800"><style>
.vtree-node text { font: 14px sans-serif; }
.vtree-link { fill: none; stroke: #888; stroke-width: 2px; }
.vtree-table { stroke-width: 2px; stroke: steelblue; }
path.vtree-table { fill: white; }
g.vtree-node rect { fill: white; stroke: black; stroke-width: 1px; }
g.vtree-node rect.number-text { fill: #d8f0ed; }
g.vtree-node rect.string-text { fill: #e7f0db; }
g.vtree-node rect.boolean-text { fill: #e1d8f0; }
g.vtree-node rect.null-text { fill: #888; }
</style><g class="vtree-root"><g class="vtree-node" transform="translate(480,168)"><g class="vtree-node" transform="translate(-8,0)"><path class="vtree-link" d="M8,4C8,53.5 -103,53.5 -103,103"/><path class="vtree-link" d="M8,4C8,47 -376,47 -376,90"/><g class="vtree-node" transform="translate(-298,58)"><path class="vtree-link" d="M-78,32C-78,32 61,32 61,32"/><g class="vtree-node" transform="translate(-135,0)"><g transform="translate(5,20)"><g transform="translate(0,0)"><rect class="string-text" x="0" y="0" width="42" height="24"/><text x="4" y="20">value</text></g><g transform="translate(42,0)"><rect class="string-text" x="0" y="0" width="61" height="24"/><text x="4" y="20">o.UserId</text></g></g><g><text x="56" y="16" text-anchor="middle">select_distinct[0]</text></g></g><g class="vtree-node" transform="translate(-13,0)"><g transform="translate(0,20)"><g transform="translate(0,0)"><rect class="string-text" x="0" y="0" width="42" height="25"/><text x="4" y="20">value</text></g><g transform="translate(42,0)"><rect class="string-text" x="0" y="0" width="106" height="25"/><text x="4" y="21">FirstBadgeDate</text></g></g><g><text x="74" y="16" text-anchor="middle">select_distinct[1]</text></g></g></g><g class="vtree-node" transform="translate(148,58)"><path class="vtree-link" d="M-251,24C-251,24 55,24 55,24"/><g class="vtree-node" transform="translate(-301,0)"><g transform="translate(0,20)"><g transform="translate(0,0)"><rect class="string-text" x="0" y="0" width="44" height="25"/><text x="4" y="20">value</text></g><g transform="translate(44,0)"><rect class="string-text" x="0" y="0" width="56" height="25"/><text x="4" y="21">Badges</text></g><g transform="translate(0,25)"><rect class="string-text" x="0" y="0" width="44" height="24"/><text x="4" y="20">name</text></g><g transform="translate(44,25)"><rect class="string-text" x="0" y="0" width="56" height="24"/><text x="4" y="20">o</text></g></g><g><text x="50" y="16" text-anchor="middle">from[0]</text></g></g><g class="vtree-node" transform="translate(29,0)"><path class="vtree-link" d="M26,24C26,63 208,63 208,102"/><path class="vtree-link" d="M26,24C26,67 -43,67 -43,110"/><g class="vtree-node" transform="translate(-76,78)"><path class="vtree-link" d="M33,32C33,79.5 33,79.5 33,127"/><g class="vtree-node" transform="translate(-13,94)"><path class="vtree-link" d="M46,33C46,80.5 177,80.5 177,128"/><path class="vtree-link" d="M46,33C46,80 -85,80 -85,127"/><g class="vtree-node" transform="translate(-5,95)"><path class="vtree-link" d="M-80,32C-80,32 51,32 51,32"/><g class="vtree-node" transform="translate(-126,0)"><g transform="translate(0,20)"><g transform="translate(0,0)"><rect class="string-text" x="0" y="0" width="42" height="24"/><text x="4" y="20">value</text></g><g transform="translate(42,0)"><rect class="string-text" x="0" y="0" width="50" height="24"/><text x="4" y="20">UserId</text></g></g><g><text x="46" y="16" text-anchor="middle">select[0]</text></g></g><g class="vtree-node" transform="translate(-24,0)"><path class="vtree-link" d="M75,33C75,80 75,80 75,127"/><g class="vtree-node" transform="translate(40,95)"><g transform="translate(0,20)"><g transform="translate(0,0)"><rect class="string-text" x="0" y="0" width="31" height="24"/><text x="4" y="20">min</text></g><g transform="translate(31,0)"><rect class="string-text" x="0" y="0" width="38" height="24"/><text x="4" y="20">Date</text></g></g><g><text x="35" y="16" text-anchor="middle">value</text></g></g><g transform="translate(0,20)"><g transform="translate(0,0)"><rect class="string-text" x="0" y="0" width="44" height="25"/><text x="4" y="20">name</text></g><g transform="translate(44,0)"><rect class="string-text" x="0" y="0" width="106" height="25"/><text x="4" y="21">FirstBadgeDate</text></g></g><g><text x="75" y="16" text-anchor="middle">select[1]</text></g></g></g><g class="vtree-node" transform="translate(131,95)"><g transform="translate(0,21)"><g transform="translate(0,0)"><rect class="string-text" x="0" y="0" width="42" height="24"/><text x="4" y="20">value</text></g><g transform="translate(42,0)"><rect class="string-text" x="0" y="0" width="50" height="24"/><text x="4" y="20">UserId</text></g></g><g><text x="46" y="17" text-anchor="middle">groupby</text></g></g><g transform="translate(0,20)"><g transform="translate(0,0)"><rect class="string-text" x="0" y="0" width="36" height="25"/><text x="4" y="20">from</text></g><g transform="translate(36,0)"><rect class="string-text" x="0" y="0" width="56" height="25"/><text x="4" y="21">Badges</text></g></g><g><text x="46" y="16" text-anchor="middle">value</text></g></g><g transform="translate(5,20)"><g transform="translate(0,0)"><rect class="string-text" x="0" y="0" width="44" height="24"/><text x="4" y="20">name</text></g><g transform="translate(44,0)"><rect class="string-text" x="0" y="0" width="12" height="24"/><text x="4" y="20">i</text></g></g><g><text x="33" y="16" text-anchor="middle">inner join</text></g></g><g class="vtree-node" transform="translate(196,78)"><path class="vtree-link" d="M12,24C12,67 -21,67 -21,110"/><g class="vtree-node" transform="translate(12,78)"><path class="vtree-link" d="M-33,32C-33,32 36,32 36,32"/><g class="vtree-node" transform="translate(-64,0)"><g transform="translate(0,20)"><rect class="string-text" x="0" y="0" width="61" height="24"/><text x="4" y="20">o.UserId</text></g><g><text x="31" y="16" text-anchor="middle">eq[0]</text></g></g><g class="vtree-node" transform="translate(7,0)"><g transform="translate(0,20)"><rect class="string-text" x="0" y="0" width="57" height="24"/><text x="4" y="20">i.UserId</text></g><g><text x="29" y="16" text-anchor="middle">eq[1]</text></g></g></g><g transform="translate(4,20)"><g transform="translate(0,0)"><rect class="string-text" x="0" y="0" width="8" height="8"/><text x="4" y="4"> </text></g><g transform="translate(8,0)"><rect class="string-text" x="0" y="0" width="8" height="8"/><text x="4" y="4"> </text></g></g><g><text x="12" y="16" text-anchor="middle">on</text></g></g><g transform="translate(18,20)"><g transform="translate(0,0)"><rect class="string-text" x="0" y="0" width="8" height="8"/><text x="4" y="4"> </text></g><g transform="translate(8,0)"><rect class="string-text" x="0" y="0" width="8" height="8"/><text x="4" y="4"> </text></g></g><g><text x="26" y="16" text-anchor="middle">from[1]</text></g></g></g><g transform="translate(0,0)"><rect class="string-text" x="0" y="0" width="8" height="8"/><text x="4" y="4"> </text></g><g transform="translate(8,0)"><rect class="string-text" x="0" y="0" width="8" height="8"/><text x="4" y="4"> </text></g></g></g></g></svg>