<?xml version="1.0" standalone="no"?>
<svg xmlns:xlink="http://www.w3.org/1999/xlink" xmlns="http://www.w3.org/2000/svg" class="vtree" width="960" height="800"><style>
.vtree-node text { font: 14px sans-serif; }
.vtree-link { fill: none; stroke: #888; stroke-width: 2px; }
.vtree-table { stroke-width: 2px; stroke: steelblue; }
path.vtree-table { fill: white; }
g.vtree-node rect { fill: white; stroke: black; stroke-width: 1px; }
g.vtree-node rect.number-text { fill: #d8f0ed; }
g.vtree-node rect.string-text { fill: #e7f0db; }
g.vtree-node rect.boolean-text { fill: #e1d8f0; }
g.vtree-node rect.null-text { fill: #888; }
</style><g class="vtree-root"><g class="vtree-node" transform="translate(480,262)"><g class="vtree-node" transform="translate(-53,0)"><path class="vtree-link" d="M53,13C53,56 319,56 319,99"/><path class="vtree-link" d="M53,13C53,60 -273,60 -273,107"/><g class="vtree-node" transform="translate(-58,75)"><path class="vtree-link" d="M116,32C116,32 217,32 217,32"/><path class="vtree-link" d="M5,32C5,32 116,32 116,32"/><path class="vtree-link" d="M-109,32C-109,32 5,32 5,32"/><path class="vtree-link" d="M-215,32C-215,32 -109,32 -109,32"/><g class="vtree-node" transform="translate(-262,0)"><g transform="translate(0,20)"><g transform="translate(0,0)"><rect class="string-text" x="0" y="0" width="42" height="24"/><text x="4" y="20">value</text></g><g transform="translate(42,0)"><rect class="string-text" x="0" y="0" width="51" height="24"/><text x="4" y="20">empno</text></g></g><g><text x="47" y="16" text-anchor="middle">select[0]</text></g></g><g class="vtree-node" transform="translate(-159,0)"><g transform="translate(0,20)"><g transform="translate(0,0)"><rect class="string-text" x="0" y="0" width="42" height="24"/><text x="4" y="20">value</text></g><g transform="translate(42,0)"><rect class="string-text" x="0" y="0" width="58" height="24"/><text x="4" y="20">firstnme</text></g></g><g><text x="50" y="16" text-anchor="middle">select[1]</text></g></g><g class="vtree-node" transform="translate(-49,0)"><g transform="translate(0,20)"><g transform="translate(0,0)"><rect class="string-text" x="0" y="0" width="42" height="24"/><text x="4" y="20">value</text></g><g transform="translate(42,0)"><rect class="string-text" x="0" y="0" width="65" height="24"/><text x="4" y="20">lastname</text></g></g><g><text x="54" y="16" text-anchor="middle">select[2]</text></g></g><g class="vtree-node" transform="translate(68,0)"><g transform="translate(0,20)"><g transform="translate(0,0)"><rect class="string-text" x="0" y="0" width="42" height="24"/><text x="4" y="20">value</text></g><g transform="translate(42,0)"><rect class="string-text" x="0" y="0" width="53" height="24"/><text x="4" y="20">edlevel</text></g></g><g><text x="48" y="16" text-anchor="middle">select[3]</text></g></g><g class="vtree-node" transform="translate(173,0)"><g transform="translate(0,20)"><g transform="translate(0,0)"><rect class="string-text" x="0" y="0" width="42" height="25"/><text x="4" y="20">value</text></g><g transform="translate(42,0)"><rect class="string-text" x="0" y="0" width="46" height="25"/><text x="4" y="21">salary</text></g></g><g><text x="44" y="16" text-anchor="middle">select[4]</text></g></g></g><g class="vtree-node" transform="translate(295,75)"><path class="vtree-link" d="M24,24C24,63 -32,63 -32,102"/><g class="vtree-node" transform="translate(24,78)"><path class="vtree-link" d="M-56,24C-56,24 55,24 55,24"/><g class="vtree-node" transform="translate(-80,0)"><path class="vtree-link" d="M24,24C24,67.5 1,67.5 1,111"/><g class="vtree-node" transform="translate(24,78)"><path class="vtree-link" d="M-23,33C-23,33 31,33 31,33"/><g class="vtree-node" transform="translate(-50,0)"><g transform="translate(0,21)"><rect class="string-text" x="0" y="0" width="53" height="24"/><text x="4" y="20">edlevel</text></g><g><text x="27" y="17" text-anchor="middle">gt[0]</text></g></g><g class="vtree-node" transform="translate(13,0)"><g transform="translate(6,21)"><rect class="number-text" x="0" y="0" width="24" height="24"/><text x="4" y="20">17</text></g><g><text x="18" y="17" text-anchor="middle">gt[1]</text></g></g></g><g transform="translate(16,20)"><g transform="translate(0,0)"><rect class="string-text" x="0" y="0" width="8" height="8"/><text x="4" y="4"> </text></g><g transform="translate(8,0)"><rect class="string-text" x="0" y="0" width="8" height="8"/><text x="4" y="4"> </text></g></g><g><text x="24" y="16" text-anchor="middle">and[0]</text></g></g><g class="vtree-node" transform="translate(31,0)"><path class="vtree-link" d="M24,24C24,68 -5,68 -5,112"/><g class="vtree-node" transform="translate(24,78)"><path class="vtree-link" d="M-29,33C-29,33 28,33 28,33"/><g class="vtree-node" transform="translate(-52,0)"><g transform="translate(0,21)"><rect class="string-text" x="0" y="0" width="46" height="25"/><text x="4" y="21">salary</text></g><g><text x="23" y="17" text-anchor="middle">gt[0]</text></g></g><g class="vtree-node" transform="translate(4,0)"><g transform="translate(0,21)"><rect class="number-text" x="0" y="0" width="47" height="24"/><text x="4" y="20">35000</text></g><g><text x="24" y="17" text-anchor="middle">gt[1]</text></g></g></g><g transform="translate(16,20)"><g transform="translate(0,0)"><rect class="string-text" x="0" y="0" width="8" height="8"/><text x="4" y="4"> </text></g><g transform="translate(8,0)"><rect class="string-text" x="0" y="0" width="8" height="8"/><text x="4" y="4"> </text></g></g><g><text x="24" y="16" text-anchor="middle">and[1]</text></g></g></g><g transform="translate(16,20)"><g transform="translate(0,0)"><rect class="string-text" x="0" y="0" width="8" height="8"/><text x="4" y="4"> </text></g><g transform="translate(8,0)"><rect class="string-text" x="0" y="0" width="8" height="8"/><text x="4" y="4"> </text></g></g><g><text x="24" y="16" text-anchor="middle">where</text></g></g><g transform="translate(0,0)"><rect class="string-text" x="0" y="0" width="36" height="25"/><text x="4" y="20">from</text></g><g transform="translate(36,0)"><rect class="string-text" x="0" y="0" width="69" height="25"/><text x="4" y="21">employee</text></g></g></g></g></svg>