<?xml version="1.0" standalone="no"?>
<svg xmlns:xlink="http://www.w3.org/1999/xlink" xmlns="http://www.w3.org/2000/svg" class="vtree" width="960" height="800"><style>
.vtree-node text { font: 14px sans-serif; }
.vtree-link { fill: none; stroke: #888; stroke-width: 2px; }
.vtree-table { stroke-width: 2px; stroke: steelblue; }
path.vtree-table { fill: white; }
g.vtree-node rect { fill: white; stroke: black; stroke-width: 1px; }
g.vtree-node rect.number-text { fill: #d8f0ed; }
g.vtree-node rect.string-text { fill: #e7f0db; }
g.vtree-node rect.boolean-text { fill: #e1d8f0; }
g.vtree-node rect.null-text { fill: #888; }
</style><g class="vtree-root"><g class="vtree-node" transform="translate(480,193)"><g class="vtree-node" transform="translate(-8,0)"><path class="vtree-link" d="M8,4C8,53.5 290,53.5 290,103"/><path class="vtree-link" d="M8,4C8,47 -269,47 -269,90"/><g class="vtree-node" transform="translate(-47,58)"><path class="vtree-link" d="M-222,24C-222,24 61,24 61,24"/><g class="vtree-node" transform="translate(-278,0)"><g transform="translate(10,20)"><g transform="translate(0,0)"><rect class="string-text" x="0" y="0" width="42" height="24"/><text x="4" y="20">value</text></g><g transform="translate(42,0)"><rect class="string-text" x="0" y="0" width="50" height="24"/><text x="4" y="20">UserId</text></g></g><g><text x="56" y="16" text-anchor="middle">select_distinct[0]</text></g></g><g class="vtree-node" transform="translate(5,0)"><path class="vtree-link" d="M56,24C56,63 56,63 56,102"/><g class="vtree-node" transform="translate(35,78)"><path class="vtree-link" d="M21,24C21,67.5 -143,67.5 -143,111"/><g class="vtree-node" transform="translate(21,78)"><path class="vtree-link" d="M-164,24C-164,24 58,24 58,24"/><g class="vtree-node" transform="translate(-217,0)"><g transform="translate(0,20)"><rect class="string-text" x="0" y="0" width="106" height="25"/><text x="4" y="21">FirstBadgeDate</text></g><g><text x="53" y="16" text-anchor="middle">eq[0]</text></g></g><g class="vtree-node" transform="translate(38,0)"><path class="vtree-link" d="M20,24C20,63 114,63 114,102"/><path class="vtree-link" d="M20,24C20,73.5 -10,73.5 -10,123"/><path class="vtree-link" d="M20,24C20,63 -104,63 -104,102"/><g class="vtree-node" transform="translate(-127,78)"><path class="vtree-link" d="M23,24C23,67 23,67 23,110"/><g class="vtree-node" transform="translate(-12,78)"><g transform="translate(0,20)"><g transform="translate(0,0)"><rect class="string-text" x="0" y="0" width="31" height="24"/><text x="4" y="20">min</text></g><g transform="translate(31,0)"><rect class="string-text" x="0" y="0" width="38" height="24"/><text x="4" y="20">Date</text></g></g><g><text x="35" y="16" text-anchor="middle">value</text></g></g><g transform="translate(15,20)"><g transform="translate(0,0)"><rect class="string-text" x="0" y="0" width="8" height="8"/><text x="4" y="4"> </text></g><g transform="translate(8,0)"><rect class="string-text" x="0" y="0" width="8" height="8"/><text x="4" y="4"> </text></g></g><g><text x="23" y="16" text-anchor="middle">select</text></g></g><g class="vtree-node" transform="translate(-60,78)"><g transform="translate(0,20)"><g transform="translate(0,0)"><rect class="string-text" x="0" y="0" width="44" height="25"/><text x="4" y="20">value</text></g><g transform="translate(44,0)"><rect class="string-text" x="0" y="0" width="56" height="25"/><text x="4" y="21">Badges</text></g><g transform="translate(0,25)"><rect class="string-text" x="0" y="0" width="44" height="24"/><text x="4" y="20">name</text></g><g transform="translate(44,25)"><rect class="string-text" x="0" y="0" width="56" height="24"/><text x="4" y="20">i</text></g></g><g><text x="50" y="16" text-anchor="middle">from</text></g></g><g class="vtree-node" transform="translate(90,78)"><path class="vtree-link" d="M24,24C24,67 -9,67 -9,110"/><g class="vtree-node" transform="translate(24,78)"><path class="vtree-link" d="M-33,32C-33,32 36,32 36,32"/><g class="vtree-node" transform="translate(-64,0)"><g transform="translate(0,20)"><rect class="string-text" x="0" y="0" width="61" height="24"/><text x="4" y="20">o.UserId</text></g><g><text x="31" y="16" text-anchor="middle">eq[0]</text></g></g><g class="vtree-node" transform="translate(7,0)"><g transform="translate(0,20)"><rect class="string-text" x="0" y="0" width="57" height="24"/><text x="4" y="20">i.UserId</text></g><g><text x="29" y="16" text-anchor="middle">eq[1]</text></g></g></g><g transform="translate(16,20)"><g transform="translate(0,0)"><rect class="string-text" x="0" y="0" width="8" height="8"/><text x="4" y="4"> </text></g><g transform="translate(8,0)"><rect class="string-text" x="0" y="0" width="8" height="8"/><text x="4" y="4"> </text></g></g><g><text x="24" y="16" text-anchor="middle">where</text></g></g><g transform="translate(12,20)"><g transform="translate(0,0)"><rect class="string-text" x="0" y="0" width="8" height="8"/><text x="4" y="4"> </text></g><g transform="translate(8,0)"><rect class="string-text" x="0" y="0" width="8" height="8"/><text x="4" y="4"> </text></g></g><g><text x="20" y="16" text-anchor="middle">eq[1]</text></g></g></g><g transform="translate(13,20)"><g transform="translate(0,0)"><rect class="string-text" x="0" y="0" width="8" height="8"/><text x="4" y="4"> </text></g><g transform="translate(8,0)"><rect class="string-text" x="0" y="0" width="8" height="8"/><text x="4" y="4"> </text></g></g><g><text x="21" y="16" text-anchor="middle">value</text></g></g><g transform="translate(48,20)"><g transform="translate(0,0)"><rect class="string-text" x="0" y="0" width="8" height="8"/><text x="4" y="4"> </text></g><g transform="translate(8,0)"><rect class="string-text" x="0" y="0" width="8" height="8"/><text x="4" y="4"> </text></g></g><g><text x="56" y="16" text-anchor="middle">select_distinct[1]</text></g></g></g><g class="vtree-node" transform="translate(240,58)"><g transform="translate(0,20)"><g transform="translate(0,0)"><rect class="string-text" x="0" y="0" width="44" height="25"/><text x="4" y="20">value</text></g><g transform="translate(44,0)"><rect class="string-text" x="0" y="0" width="56" height="25"/><text x="4" y="21">Badges</text></g><g transform="translate(0,25)"><rect class="string-text" x="0" y="0" width="44" height="24"/><text x="4" y="20">name</text></g><g transform="translate(44,25)"><rect class="string-text" x="0" y="0" width="56" height="24"/><text x="4" y="20">o</text></g></g><g><text x="50" y="16" text-anchor="middle">from</text></g></g><g transform="translate(0,0)"><rect class="string-text" x="0" y="0" width="8" height="8"/><text x="4" y="4"> </text></g><g transform="translate(8,0)"><rect class="string-text" x="0" y="0" width="8" height="8"/><text x="4" y="4"> </text></g></g></g></g></svg>