<?xml version="1.0" standalone="no"?>
<svg xmlns:xlink="http://www.w3.org/1999/xlink" xmlns="http://www.w3.org/2000/svg" class="vtree" width="960" height="800"><style>
.vtree-node text { font: 14px sans-serif; }
.vtree-link { fill: none; stroke: #888; stroke-width: 2px; }
.vtree-table { stroke-width: 2px; stroke: steelblue; }
path.vtree-table { fill: white; }
g.vtree-node rect { fill: white; stroke: black; stroke-width: 1px; }
g.vtree-node rect.number-text { fill: #d8f0ed; }
g.vtree-node rect.string-text { fill: #e7f0db; }
g.vtree-node rect.boolean-text { fill: #e1d8f0; }
g.vtree-node rect.null-text { fill: #888; }
</style><g class="vtree-root" transform="translate(178.52800511570024,113.84176001887982)scale(0.5979098983880626)"><g class="vtree-node" transform="translate(480,115)"><g class="vtree-node" transform="translate(-43,0)"><path class="vtree-link" d="M43,12C43,59.5 759,59.5 759,107"/><path class="vtree-link" d="M43,12C43,55 120,55 120,98"/><path class="vtree-link" d="M43,12C43,55 -672,55 -672,98"/><g class="vtree-node" transform="translate(-596,74)"><path class="vtree-link" d="M-76,24C-76,24 35,24 35,24"/><g class="vtree-node" transform="translate(-107,0)"><path class="vtree-link" d="M31,24C31,67 31,67 31,110"/><g class="vtree-node" transform="translate(5,78)"><g transform="translate(0,20)"><g transform="translate(0,0)"><rect class="string-text" x="0" y="0" width="35" height="24"/><text x="4" y="20">sum</text></g><g transform="translate(35,0)"><rect class="number-text" x="0" y="0" width="16" height="24"/><text x="4" y="20">1</text></g></g><g><text x="26" y="16" text-anchor="middle">value</text></g></g><g transform="translate(23,20)"><g transform="translate(0,0)"><rect class="string-text" x="0" y="0" width="8" height="8"/><text x="4" y="4"> </text></g><g transform="translate(8,0)"><rect class="string-text" x="0" y="0" width="8" height="8"/><text x="4" y="4"> </text></g></g><g><text x="31" y="16" text-anchor="middle">select[0]</text></g></g><g class="vtree-node" transform="translate(4,0)"><path class="vtree-link" d="M31,24C31,63 31,63 31,102"/><g class="vtree-node" transform="translate(10,78)"><path class="vtree-link" d="M21,24C21,67 -9,67 -9,110"/><g class="vtree-node" transform="translate(21,78)"><path class="vtree-link" d="M-30,24C-30,24 46,24 46,24"/><g class="vtree-node" transform="translate(-71,0)"><g transform="translate(0,20)"><rect class="string-text" x="0" y="0" width="82" height="24"/><text x="4" y="20">state_name</text></g><g><text x="41" y="16" text-anchor="middle">cast[0]</text></g></g><g class="vtree-node" transform="translate(21,0)"><path class="vtree-link" d="M25,24C25,63 25,63 25,102"/><g class="vtree-node" transform="translate(9,78)"><g transform="translate(8,20)"><g transform="translate(0,0)"><rect class="string-text" x="0" y="0" width="8" height="8"/><text x="4" y="4"> </text></g><g transform="translate(8,0)"><rect class="string-text" x="0" y="0" width="8" height="8"/><text x="4" y="4"> </text></g></g><g><text x="16" y="16" text-anchor="middle">text</text></g></g><g transform="translate(17,20)"><g transform="translate(0,0)"><rect class="string-text" x="0" y="0" width="8" height="8"/><text x="4" y="4"> </text></g><g transform="translate(8,0)"><rect class="string-text" x="0" y="0" width="8" height="8"/><text x="4" y="4"> </text></g></g><g><text x="25" y="16" text-anchor="middle">cast[1]</text></g></g></g><g transform="translate(13,20)"><g transform="translate(0,0)"><rect class="string-text" x="0" y="0" width="8" height="8"/><text x="4" y="4"> </text></g><g transform="translate(8,0)"><rect class="string-text" x="0" y="0" width="8" height="8"/><text x="4" y="4"> </text></g></g><g><text x="21" y="16" text-anchor="middle">value</text></g></g><g transform="translate(23,20)"><g transform="translate(0,0)"><rect class="string-text" x="0" y="0" width="8" height="8"/><text x="4" y="4"> </text></g><g transform="translate(8,0)"><rect class="string-text" x="0" y="0" width="8" height="8"/><text x="4" y="4"> </text></g></g><g><text x="31" y="16" text-anchor="middle">select[1]</text></g></g></g><g class="vtree-node" transform="translate(96,74)"><path class="vtree-link" d="M24,24C24,63 -87,63 -87,102"/><g class="vtree-node" transform="translate(24,78)"><path class="vtree-link" d="M-111,24C-111,24 494,24 494,24"/><g class="vtree-node" transform="translate(-135,0)"><path class="vtree-link" d="M24,24C24,63 -303,63 -303,102"/><g class="vtree-node" transform="translate(24,78)"><path class="vtree-link" d="M-327,24C-327,24 167,24 167,24"/><g class="vtree-node" transform="translate(-345,0)"><path class="vtree-link" d="M18,24C18,63 -12,63 -12,102"/><g class="vtree-node" transform="translate(18,78)"><path class="vtree-link" d="M-30,24C-30,24 137,24 137,24"/><g class="vtree-node" transform="translate(-55,0)"><path class="vtree-link" d="M25,24C25,67 -47,67 -47,110"/><g class="vtree-node" transform="translate(25,78)"><path class="vtree-link" d="M-72,24C-72,24 65,24 65,24"/><g class="vtree-node" transform="translate(-132,0)"><g transform="translate(0,20)"><g transform="translate(0,0)"><rect class="string-text" x="0" y="0" width="42" height="24"/><text x="4" y="20">literal</text></g><g transform="translate(42,0)"><rect class="string-text" x="0" y="0" width="77" height="24"/><text x="4" y="20">QUARTER</text></g></g><g><text x="60" y="16" text-anchor="middle">date_trunc[0]</text></g></g><g class="vtree-node" transform="translate(20,0)"><path class="vtree-link" d="M45,24C45,67 15,67 15,110"/><g class="vtree-node" transform="translate(45,78)"><path class="vtree-link" d="M-30,24C-30,24 42,24 42,24"/><g class="vtree-node" transform="translate(-68,0)"><g transform="translate(0,20)"><rect class="string-text" x="0" y="0" width="75" height="24"/><text x="4" y="20">created_at</text></g><g><text x="38" y="16" text-anchor="middle">cast[0]</text></g></g><g class="vtree-node" transform="translate(17,0)"><path class="vtree-link" d="M25,24C25,63 25,63 25,102"/><g class="vtree-node" transform="translate(7,78)"><g transform="translate(10,20)"><g transform="translate(0,0)"><rect class="string-text" x="0" y="0" width="8" height="8"/><text x="4" y="4"> </text></g><g transform="translate(8,0)"><rect class="string-text" x="0" y="0" width="8" height="8"/><text x="4" y="4"> </text></g></g><g><text x="18" y="16" text-anchor="middle">date</text></g></g><g transform="translate(17,20)"><g transform="translate(0,0)"><rect class="string-text" x="0" y="0" width="8" height="8"/><text x="4" y="4"> </text></g><g transform="translate(8,0)"><rect class="string-text" x="0" y="0" width="8" height="8"/><text x="4" y="4"> </text></g></g><g><text x="25" y="16" text-anchor="middle">cast[1]</text></g></g></g><g transform="translate(37,20)"><g transform="translate(0,0)"><rect class="string-text" x="0" y="0" width="8" height="8"/><text x="4" y="4"> </text></g><g transform="translate(8,0)"><rect class="string-text" x="0" y="0" width="8" height="8"/><text x="4" y="4"> </text></g></g><g><text x="45" y="16" text-anchor="middle">date_trunc[1]</text></g></g></g><g transform="translate(17,20)"><g transform="translate(0,0)"><rect class="string-text" x="0" y="0" width="8" height="8"/><text x="4" y="4"> </text></g><g transform="translate(8,0)"><rect class="string-text" x="0" y="0" width="8" height="8"/><text x="4" y="4"> </text></g></g><g><text x="25" y="16" text-anchor="middle">cast[0]</text></g></g><g class="vtree-node" transform="translate(112,0)"><path class="vtree-link" d="M25,24C25,63 25,63 25,102"/><g class="vtree-node" transform="translate(7,78)"><g transform="translate(10,20)"><g transform="translate(0,0)"><rect class="string-text" x="0" y="0" width="8" height="8"/><text x="4" y="4"> </text></g><g transform="translate(8,0)"><rect class="string-text" x="0" y="0" width="8" height="8"/><text x="4" y="4"> </text></g></g><g><text x="18" y="16" text-anchor="middle">date</text></g></g><g transform="translate(17,20)"><g transform="translate(0,0)"><rect class="string-text" x="0" y="0" width="8" height="8"/><text x="4" y="4"> </text></g><g transform="translate(8,0)"><rect class="string-text" x="0" y="0" width="8" height="8"/><text x="4" y="4"> </text></g></g><g><text x="25" y="16" text-anchor="middle">cast[1]</text></g></g></g><g transform="translate(10,20)"><g transform="translate(0,0)"><rect class="string-text" x="0" y="0" width="8" height="8"/><text x="4" y="4"> </text></g><g transform="translate(8,0)"><rect class="string-text" x="0" y="0" width="8" height="8"/><text x="4" y="4"> </text></g></g><g><text x="18" y="16" text-anchor="middle">in[0]</text></g></g><g class="vtree-node" transform="translate(149,0)"><path class="vtree-link" d="M18,24C18,63 -200,63 -200,102"/><g class="vtree-node" transform="translate(18,78)"><path class="vtree-link" d="M0,24C0,24 218,24 218,24"/><path class="vtree-link" d="M-218,24C-218,24 0,24 0,24"/><g class="vtree-node" transform="translate(-230,0)"><path class="vtree-link" d="M12,24C12,67 12,67 12,110"/><g class="vtree-node" transform="translate(-92,78)"><g transform="translate(0,20)"><g transform="translate(0,0)"><rect class="string-text" x="0" y="0" width="42" height="24"/><text x="4" y="20">literal</text></g><g transform="translate(42,0)"><rect class="string-text" x="0" y="0" width="166" height="24"/><text x="4" y="20">2016-10-01 00:00:00.000</text></g></g><g><text x="104" y="16" text-anchor="middle">timestamp</text></g></g><g transform="translate(4,20)"><g transform="translate(0,0)"><rect class="string-text" x="0" y="0" width="8" height="8"/><text x="4" y="4"> </text></g><g transform="translate(8,0)"><rect class="string-text" x="0" y="0" width="8" height="8"/><text x="4" y="4"> </text></g></g><g><text x="12" y="16" text-anchor="middle">[0]</text></g></g><g class="vtree-node" transform="translate(-12,0)"><path class="vtree-link" d="M12,24C12,67 12,67 12,110"/><g class="vtree-node" transform="translate(-92,78)"><g transform="translate(0,20)"><g transform="translate(0,0)"><rect class="string-text" x="0" y="0" width="42" height="24"/><text x="4" y="20">literal</text></g><g transform="translate(42,0)"><rect class="string-text" x="0" y="0" width="166" height="24"/><text x="4" y="20">2017-01-01 00:00:00.000</text></g></g><g><text x="104" y="16" text-anchor="middle">timestamp</text></g></g><g transform="translate(4,20)"><g transform="translate(0,0)"><rect class="string-text" x="0" y="0" width="8" height="8"/><text x="4" y="4"> </text></g><g transform="translate(8,0)"><rect class="string-text" x="0" y="0" width="8" height="8"/><text x="4" y="4"> </text></g></g><g><text x="12" y="16" text-anchor="middle">[1]</text></g></g><g class="vtree-node" transform="translate(206,0)"><path class="vtree-link" d="M12,24C12,67 12,67 12,110"/><g class="vtree-node" transform="translate(-92,78)"><g transform="translate(0,20)"><g transform="translate(0,0)"><rect class="string-text" x="0" y="0" width="42" height="24"/><text x="4" y="20">literal</text></g><g transform="translate(42,0)"><rect class="string-text" x="0" y="0" width="166" height="24"/><text x="4" y="20">2017-04-01 00:00:00.000</text></g></g><g><text x="104" y="16" text-anchor="middle">timestamp</text></g></g><g transform="translate(4,20)"><g transform="translate(0,0)"><rect class="string-text" x="0" y="0" width="8" height="8"/><text x="4" y="4"> </text></g><g transform="translate(8,0)"><rect class="string-text" x="0" y="0" width="8" height="8"/><text x="4" y="4"> </text></g></g><g><text x="12" y="16" text-anchor="middle">[2]</text></g></g></g><g transform="translate(14,20)"><circle cx="4" cy="4" r="4"/></g><g><text x="18" y="16" text-anchor="middle">in[1]</text></g></g></g><g transform="translate(16,20)"><g transform="translate(0,0)"><rect class="string-text" x="0" y="0" width="8" height="8"/><text x="4" y="4"> </text></g><g transform="translate(8,0)"><rect class="string-text" x="0" y="0" width="8" height="8"/><text x="4" y="4"> </text></g></g><g><text x="24" y="16" text-anchor="middle">and[0]</text></g></g><g class="vtree-node" transform="translate(470,0)"><path class="vtree-link" d="M24,24C24,63.5 1,63.5 1,103"/><g class="vtree-node" transform="translate(24,78)"><path class="vtree-link" d="M-23,25C-23,25 87,25 87,25"/><g class="vtree-node" transform="translate(-41,0)"><path class="vtree-link" d="M18,25C18,68 -33,68 -33,111"/><g class="vtree-node" transform="translate(18,79)"><path class="vtree-link" d="M-51,32C-51,32 36,32 36,32"/><g class="vtree-node" transform="translate(-83,0)"><g transform="translate(16,20)"><rect class="string-text" x="0" y="0" width="31" height="24"/><text x="4" y="20">text</text></g><g><text x="31" y="16" text-anchor="middle">strpos[0]</text></g></g><g class="vtree-node" transform="translate(-11,0)"><g transform="translate(0,20)"><g transform="translate(0,0)"><rect class="string-text" x="0" y="0" width="42" height="24"/><text x="4" y="20">literal</text></g><g transform="translate(42,0)"><rect class="string-text" x="0" y="0" width="51" height="24"/><text x="4" y="20">iphone</text></g></g><g><text x="47" y="16" text-anchor="middle">strpos[1]</text></g></g></g><g transform="translate(10,21)"><g transform="translate(0,0)"><rect class="string-text" x="0" y="0" width="8" height="8"/><text x="4" y="4"> </text></g><g transform="translate(8,0)"><rect class="string-text" x="0" y="0" width="8" height="8"/><text x="4" y="4"> </text></g></g><g><text x="18" y="17" text-anchor="middle">gt[0]</text></g></g><g class="vtree-node" transform="translate(69,0)"><g transform="translate(10,21)"><rect class="number-text" x="0" y="0" width="16" height="24"/><text x="4" y="20">0</text></g><g><text x="18" y="17" text-anchor="middle">gt[1]</text></g></g></g><g transform="translate(16,20)"><g transform="translate(0,0)"><rect class="string-text" x="0" y="0" width="8" height="8"/><text x="4" y="4"> </text></g><g transform="translate(8,0)"><rect class="string-text" x="0" y="0" width="8" height="8"/><text x="4" y="4"> </text></g></g><g><text x="24" y="16" text-anchor="middle">and[1]</text></g></g></g><g transform="translate(16,20)"><g transform="translate(0,0)"><rect class="string-text" x="0" y="0" width="8" height="8"/><text x="4" y="4"> </text></g><g transform="translate(8,0)"><rect class="string-text" x="0" y="0" width="8" height="8"/><text x="4" y="4"> </text></g></g><g><text x="24" y="16" text-anchor="middle">where</text></g></g><g class="vtree-node" transform="translate(729,74)"><g transform="translate(1,21)"><g transform="translate(0,0)"><rect class="string-text" x="0" y="0" width="42" height="24"/><text x="4" y="20">value</text></g><g transform="translate(42,0)"><rect class="number-text" x="0" y="0" width="16" height="24"/><text x="4" y="20">2</text></g></g><g><text x="30" y="17" text-anchor="middle">groupby</text></g></g><g transform="translate(0,0)"><rect class="string-text" x="0" y="0" width="36" height="24"/><text x="4" y="20">from</text></g><g transform="translate(36,0)"><rect class="string-text" x="0" y="0" width="49" height="24"/><text x="4" y="20">tweets</text></g></g></g></g></svg>