<?xml version="1.0" standalone="no"?>
<svg xmlns:xlink="http://www.w3.org/1999/xlink" xmlns="http://www.w3.org/2000/svg" class="vtree" width="960" height="800"><style>
.vtree-node text { font: 14px sans-serif; }
.vtree-link { fill: none; stroke: #888; stroke-width: 2px; }
.vtree-table { stroke-width: 2px; stroke: steelblue; }
path.vtree-table { fill: white; }
g.vtree-node rect { fill: white; stroke: black; stroke-width: 1px; }
g.vtree-node rect.number-text { fill: #d8f0ed; }
g.vtree-node rect.string-text { fill: #e7f0db; }
g.vtree-node rect.boolean-text { fill: #e1d8f0; }
g.vtree-node rect.null-text { fill: #888; }
</style><g class="vtree-root"><g class="vtree-node" transform="translate(480,216)"><g class="vtree-node" transform="translate(-53,0)"><path class="vtree-link" d="M53,13C53,56 275,56 275,99"/><path class="vtree-link" d="M53,13C53,60 -323,60 -323,107"/><g class="vtree-node" transform="translate(-152,75)"><path class="vtree-link" d="M49,32C49,32 165,32 165,32"/><path class="vtree-link" d="M-65,32C-65,32 49,32 49,32"/><path class="vtree-link" d="M-171,32C-171,32 -65,32 -65,32"/><g class="vtree-node" transform="translate(-218,0)"><g transform="translate(0,20)"><g transform="translate(0,0)"><rect class="string-text" x="0" y="0" width="42" height="24"/><text x="4" y="20">value</text></g><g transform="translate(42,0)"><rect class="string-text" x="0" y="0" width="51" height="24"/><text x="4" y="20">empno</text></g></g><g><text x="47" y="16" text-anchor="middle">select[0]</text></g></g><g class="vtree-node" transform="translate(-115,0)"><g transform="translate(0,20)"><g transform="translate(0,0)"><rect class="string-text" x="0" y="0" width="42" height="24"/><text x="4" y="20">value</text></g><g transform="translate(42,0)"><rect class="string-text" x="0" y="0" width="58" height="24"/><text x="4" y="20">firstnme</text></g></g><g><text x="50" y="16" text-anchor="middle">select[1]</text></g></g><g class="vtree-node" transform="translate(-5,0)"><g transform="translate(0,20)"><g transform="translate(0,0)"><rect class="string-text" x="0" y="0" width="42" height="24"/><text x="4" y="20">value</text></g><g transform="translate(42,0)"><rect class="string-text" x="0" y="0" width="65" height="24"/><text x="4" y="20">lastname</text></g></g><g><text x="54" y="16" text-anchor="middle">select[2]</text></g></g><g class="vtree-node" transform="translate(112,0)"><g transform="translate(0,20)"><g transform="translate(0,0)"><rect class="string-text" x="0" y="0" width="42" height="24"/><text x="4" y="20">value</text></g><g transform="translate(42,0)"><rect class="string-text" x="0" y="0" width="63" height="24"/><text x="4" y="20">phoneno</text></g></g><g><text x="53" y="16" text-anchor="middle">select[3]</text></g></g></g><g class="vtree-node" transform="translate(251,75)"><path class="vtree-link" d="M24,24C24,67 -143,67 -143,110"/><g class="vtree-node" transform="translate(24,78)"><path class="vtree-link" d="M-167,32C-167,32 38,32 38,32"/><g class="vtree-node" transform="translate(-200,0)"><g transform="translate(0,20)"><rect class="string-text" x="0" y="0" width="65" height="24"/><text x="4" y="20">workdept</text></g><g><text x="33" y="16" text-anchor="middle">in[0]</text></g></g><g class="vtree-node" transform="translate(-20,0)"><path class="vtree-link" d="M58,32C58,75 109,75 109,118"/><path class="vtree-link" d="M58,32C58,79 -58,79 -58,126"/><g class="vtree-node" transform="translate(-105,94)"><g transform="translate(0,20)"><g transform="translate(0,0)"><rect class="string-text" x="0" y="0" width="42" height="24"/><text x="4" y="20">value</text></g><g transform="translate(42,0)"><rect class="string-text" x="0" y="0" width="51" height="24"/><text x="4" y="20">deptno</text></g></g><g><text x="47" y="16" text-anchor="middle">select</text></g></g><g class="vtree-node" transform="translate(85,94)"><path class="vtree-link" d="M24,24C24,67 -51,67 -51,110"/><g class="vtree-node" transform="translate(24,78)"><path class="vtree-link" d="M-75,32C-75,32 41,32 41,32"/><g class="vtree-node" transform="translate(-111,0)"><g transform="translate(0,20)"><rect class="string-text" x="0" y="0" width="71" height="24"/><text x="4" y="20">deptname</text></g><g><text x="36" y="16" text-anchor="middle">eq[0]</text></g></g><g class="vtree-node" transform="translate(-30,0)"><g transform="translate(0,20)"><g transform="translate(0,0)"><rect class="string-text" x="0" y="0" width="42" height="24"/><text x="4" y="20">literal</text></g><g transform="translate(42,0)"><rect class="string-text" x="0" y="0" width="99" height="24"/><text x="4" y="20">OPERATIONS</text></g></g><g><text x="71" y="16" text-anchor="middle">eq[1]</text></g></g></g><g transform="translate(16,20)"><g transform="translate(0,0)"><rect class="string-text" x="0" y="0" width="8" height="8"/><text x="4" y="4"> </text></g><g transform="translate(8,0)"><rect class="string-text" x="0" y="0" width="8" height="8"/><text x="4" y="4"> </text></g></g><g><text x="24" y="16" text-anchor="middle">where</text></g></g><g transform="translate(0,20)"><g transform="translate(0,0)"><rect class="string-text" x="0" y="0" width="36" height="24"/><text x="4" y="20">from</text></g><g transform="translate(36,0)"><rect class="string-text" x="0" y="0" width="79" height="24"/><text x="4" y="20">department</text></g></g><g><text x="58" y="16" text-anchor="middle">in[1]</text></g></g></g><g transform="translate(16,20)"><g transform="translate(0,0)"><rect class="string-text" x="0" y="0" width="8" height="8"/><text x="4" y="4"> </text></g><g transform="translate(8,0)"><rect class="string-text" x="0" y="0" width="8" height="8"/><text x="4" y="4"> </text></g></g><g><text x="24" y="16" text-anchor="middle">where</text></g></g><g transform="translate(0,0)"><rect class="string-text" x="0" y="0" width="36" height="25"/><text x="4" y="20">from</text></g><g transform="translate(36,0)"><rect class="string-text" x="0" y="0" width="69" height="25"/><text x="4" y="21">employee</text></g></g></g></g></svg>