<?xml version="1.0" standalone="no"?>
<svg xmlns:xlink="http://www.w3.org/1999/xlink" xmlns="http://www.w3.org/2000/svg" class="vtree" width="960" height="800"><style>
.vtree-node text { font: 14px sans-serif; }
.vtree-link { fill: none; stroke: #888; stroke-width: 2px; }
.vtree-table { stroke-width: 2px; stroke: steelblue; }
path.vtree-table { fill: white; }
g.vtree-node rect { fill: white; stroke: black; stroke-width: 1px; }
g.vtree-node rect.number-text { fill: #d8f0ed; }
g.vtree-node rect.string-text { fill: #e7f0db; }
g.vtree-node rect.boolean-text { fill: #e1d8f0; }
g.vtree-node rect.null-text { fill: #888; }
</style><g class="vtree-root" transform="translate(101.94072085497879,70.50913636087449)scale(0.7443226275832779)"><g class="vtree-node" transform="translate(480,271)"><g class="vtree-node" transform="translate(-8,0)"><path class="vtree-link" d="M8,4C8,43 380,43 380,82"/><path class="vtree-link" d="M8,4C8,53.5 -45,53.5 -45,103"/><path class="vtree-link" d="M8,4C8,47 -533,47 -533,90"/><g class="vtree-node" transform="translate(-351,58)"><path class="vtree-link" d="M62,32C62,32 184,32 184,32"/><path class="vtree-link" d="M-61,32C-61,32 62,32 62,32"/><path class="vtree-link" d="M-182,32C-182,32 -61,32 -61,32"/><g class="vtree-node" transform="translate(-239,0)"><g transform="translate(10,20)"><g transform="translate(0,0)"><rect class="string-text" x="0" y="0" width="42" height="24"/><text x="4" y="20">value</text></g><g transform="translate(42,0)"><rect class="string-text" x="0" y="0" width="51" height="24"/><text x="4" y="20">empno</text></g></g><g><text x="56" y="16" text-anchor="middle">select_distinct[0]</text></g></g><g class="vtree-node" transform="translate(-117,0)"><g transform="translate(6,20)"><g transform="translate(0,0)"><rect class="string-text" x="0" y="0" width="42" height="24"/><text x="4" y="20">value</text></g><g transform="translate(42,0)"><rect class="string-text" x="0" y="0" width="58" height="24"/><text x="4" y="20">firstnme</text></g></g><g><text x="56" y="16" text-anchor="middle">select_distinct[1]</text></g></g><g class="vtree-node" transform="translate(5,0)"><g transform="translate(3,20)"><g transform="translate(0,0)"><rect class="string-text" x="0" y="0" width="42" height="24"/><text x="4" y="20">value</text></g><g transform="translate(42,0)"><rect class="string-text" x="0" y="0" width="65" height="24"/><text x="4" y="20">lastname</text></g></g><g><text x="56" y="16" text-anchor="middle">select_distinct[2]</text></g></g><g class="vtree-node" transform="translate(127,0)"><g transform="translate(4,20)"><g transform="translate(0,0)"><rect class="string-text" x="0" y="0" width="42" height="24"/><text x="4" y="20">value</text></g><g transform="translate(42,0)"><rect class="string-text" x="0" y="0" width="63" height="24"/><text x="4" y="20">phoneno</text></g></g><g><text x="56" y="16" text-anchor="middle">select_distinct[3]</text></g></g></g><g class="vtree-node" transform="translate(21,58)"><path class="vtree-link" d="M-66,44C-66,44 62,44 62,44"/><g class="vtree-node" transform="translate(-123,0)"><g transform="translate(0,20)"><g transform="translate(0,0)"><rect class="string-text" x="0" y="0" width="44" height="25"/><text x="4" y="20">value</text></g><g transform="translate(44,0)"><rect class="string-text" x="0" y="0" width="69" height="25"/><text x="4" y="21">employee</text></g><g transform="translate(0,25)"><rect class="string-text" x="0" y="0" width="44" height="24"/><text x="4" y="20">name</text></g><g transform="translate(44,25)"><rect class="string-text" x="0" y="0" width="69" height="24"/><text x="4" y="20">emp</text></g></g><g><text x="57" y="16" text-anchor="middle">from[0]</text></g></g><g class="vtree-node" transform=""><g transform="translate(0,20)"><g transform="translate(0,0)"><rect class="string-text" x="0" y="0" width="44" height="24"/><text x="4" y="20">value</text></g><g transform="translate(44,0)"><rect class="string-text" x="0" y="0" width="79" height="24"/><text x="4" y="20">department</text></g><g transform="translate(0,24)"><rect class="string-text" x="0" y="0" width="44" height="24"/><text x="4" y="20">name</text></g><g transform="translate(44,24)"><rect class="string-text" x="0" y="0" width="79" height="24"/><text x="4" y="20">dept</text></g></g><g><text x="62" y="16" text-anchor="middle">from[1]</text></g></g></g><g class="vtree-node" transform="translate(356,58)"><path class="vtree-link" d="M24,24C24,63 -108,63 -108,102"/><g class="vtree-node" transform="translate(24,78)"><path class="vtree-link" d="M-132,24C-132,24 99,24 99,24"/><g class="vtree-node" transform="translate(-156,0)"><path class="vtree-link" d="M24,24C24,67 -22,67 -22,110"/><g class="vtree-node" transform="translate(24,78)"><path class="vtree-link" d="M-46,32C-46,32 53,32 53,32"/><g class="vtree-node" transform="translate(-94,0)"><g transform="translate(0,20)"><rect class="string-text" x="0" y="0" width="96" height="24"/><text x="4" y="20">emp.workdept</text></g><g><text x="48" y="16" text-anchor="middle">eq[0]</text></g></g><g class="vtree-node" transform="translate(12,0)"><g transform="translate(0,20)"><rect class="string-text" x="0" y="0" width="82" height="24"/><text x="4" y="20">dept.deptno</text></g><g><text x="41" y="16" text-anchor="middle">eq[1]</text></g></g></g><g transform="translate(16,20)"><g transform="translate(0,0)"><rect class="string-text" x="0" y="0" width="8" height="8"/><text x="4" y="4"> </text></g><g transform="translate(8,0)"><rect class="string-text" x="0" y="0" width="8" height="8"/><text x="4" y="4"> </text></g></g><g><text x="24" y="16" text-anchor="middle">and[0]</text></g></g><g class="vtree-node" transform="translate(75,0)"><path class="vtree-link" d="M24,24C24,67 -52,67 -52,110"/><g class="vtree-node" transform="translate(24,78)"><path class="vtree-link" d="M-76,32C-76,32 56,32 56,32"/><g class="vtree-node" transform="translate(-127,0)"><g transform="translate(0,20)"><rect class="string-text" x="0" y="0" width="102" height="24"/><text x="4" y="20">dept.deptname</text></g><g><text x="51" y="16" text-anchor="middle">eq[0]</text></g></g><g class="vtree-node" transform="translate(-15,0)"><g transform="translate(0,20)"><g transform="translate(0,0)"><rect class="string-text" x="0" y="0" width="42" height="24"/><text x="4" y="20">literal</text></g><g transform="translate(42,0)"><rect class="string-text" x="0" y="0" width="99" height="24"/><text x="4" y="20">OPERATIONS</text></g></g><g><text x="71" y="16" text-anchor="middle">eq[1]</text></g></g></g><g transform="translate(16,20)"><g transform="translate(0,0)"><rect class="string-text" x="0" y="0" width="8" height="8"/><text x="4" y="4"> </text></g><g transform="translate(8,0)"><rect class="string-text" x="0" y="0" width="8" height="8"/><text x="4" y="4"> </text></g></g><g><text x="24" y="16" text-anchor="middle">and[1]</text></g></g></g><g transform="translate(16,20)"><g transform="translate(0,0)"><rect class="string-text" x="0" y="0" width="8" height="8"/><text x="4" y="4"> </text></g><g transform="translate(8,0)"><rect class="string-text" x="0" y="0" width="8" height="8"/><text x="4" y="4"> </text></g></g><g><text x="24" y="16" text-anchor="middle">where</text></g></g><g transform="translate(0,0)"><rect class="string-text" x="0" y="0" width="8" height="8"/><text x="4" y="4"> </text></g><g transform="translate(8,0)"><rect class="string-text" x="0" y="0" width="8" height="8"/><text x="4" y="4"> </text></g></g></g></g></svg>