<?xml version="1.0" standalone="no"?>
<svg xmlns:xlink="http://www.w3.org/1999/xlink" xmlns="http://www.w3.org/2000/svg" class="vtree" width="960" height="800"><style>
.vtree-node text { font: 14px sans-serif; }
.vtree-link { fill: none; stroke: #888; stroke-width: 2px; }
.vtree-table { stroke-width: 2px; stroke: steelblue; }
path.vtree-table { fill: white; }
g.vtree-node rect { fill: white; stroke: black; stroke-width: 1px; }
g.vtree-node rect.number-text { fill: #d8f0ed; }
g.vtree-node rect.string-text { fill: #e7f0db; }
g.vtree-node rect.boolean-text { fill: #e1d8f0; }
g.vtree-node rect.null-text { fill: #888; }
</style><g class="vtree-root"><g class="vtree-node" transform="translate(480,293)"><g class="vtree-node" transform="translate(-46,0)"><path class="vtree-link" d="M46,13C46,60.5 177,60.5 177,108"/><path class="vtree-link" d="M46,13C46,60 -85,60 -85,107"/><g class="vtree-node" transform="translate(-5,75)"><path class="vtree-link" d="M-80,32C-80,32 51,32 51,32"/><g class="vtree-node" transform="translate(-126,0)"><g transform="translate(0,20)"><g transform="translate(0,0)"><rect class="string-text" x="0" y="0" width="42" height="24"/><text x="4" y="20">value</text></g><g transform="translate(42,0)"><rect class="string-text" x="0" y="0" width="50" height="24"/><text x="4" y="20">UserId</text></g></g><g><text x="46" y="16" text-anchor="middle">select[0]</text></g></g><g class="vtree-node" transform="translate(-24,0)"><path class="vtree-link" d="M75,33C75,80 75,80 75,127"/><g class="vtree-node" transform="translate(40,95)"><g transform="translate(0,20)"><g transform="translate(0,0)"><rect class="string-text" x="0" y="0" width="31" height="24"/><text x="4" y="20">min</text></g><g transform="translate(31,0)"><rect class="string-text" x="0" y="0" width="38" height="24"/><text x="4" y="20">Date</text></g></g><g><text x="35" y="16" text-anchor="middle">value</text></g></g><g transform="translate(0,20)"><g transform="translate(0,0)"><rect class="string-text" x="0" y="0" width="44" height="25"/><text x="4" y="20">name</text></g><g transform="translate(44,0)"><rect class="string-text" x="0" y="0" width="106" height="25"/><text x="4" y="21">FirstBadgeDate</text></g></g><g><text x="75" y="16" text-anchor="middle">select[1]</text></g></g></g><g class="vtree-node" transform="translate(131,75)"><g transform="translate(0,21)"><g transform="translate(0,0)"><rect class="string-text" x="0" y="0" width="42" height="24"/><text x="4" y="20">value</text></g><g transform="translate(42,0)"><rect class="string-text" x="0" y="0" width="50" height="24"/><text x="4" y="20">UserId</text></g></g><g><text x="46" y="17" text-anchor="middle">groupby</text></g></g><g transform="translate(0,0)"><rect class="string-text" x="0" y="0" width="36" height="25"/><text x="4" y="20">from</text></g><g transform="translate(36,0)"><rect class="string-text" x="0" y="0" width="56" height="25"/><text x="4" y="21">Badges</text></g></g></g></g></svg>