<?xml version="1.0" standalone="no"?>
<svg xmlns:xlink="http://www.w3.org/1999/xlink" xmlns="http://www.w3.org/2000/svg" class="vtree" width="960" height="800"><style>
.vtree-node text { font: 14px sans-serif; }
.vtree-link { fill: none; stroke: #888; stroke-width: 2px; }
.vtree-table { stroke-width: 2px; stroke: steelblue; }
path.vtree-table { fill: white; }
g.vtree-node rect { fill: white; stroke: black; stroke-width: 1px; }
g.vtree-node rect.number-text { fill: #d8f0ed; }
g.vtree-node rect.string-text { fill: #e7f0db; }
g.vtree-node rect.boolean-text { fill: #e1d8f0; }
g.vtree-node rect.null-text { fill: #888; }
</style><g class="vtree-root" transform="translate(155.87918430072392,99.46763415553056)scale(0.646176415318751)"><g class="vtree-node" transform="translate(480,270)"><g class="vtree-node" transform="translate(-8,0)"><path class="vtree-link" d="M8,4C8,43 446,43 446,82"/><path class="vtree-link" d="M8,4C8,53.5 51,53.5 51,103"/><path class="vtree-link" d="M8,4C8,47 -580,47 -580,90"/><g class="vtree-node" transform="translate(-326,58)"><path class="vtree-link" d="M136,32C136,32 257,32 257,32"/><path class="vtree-link" d="M6,32C6,32 136,32 136,32"/><path class="vtree-link" d="M-128,32C-128,32 6,32 6,32"/><path class="vtree-link" d="M-254,32C-254,32 -128,32 -128,32"/><g class="vtree-node" transform="translate(-311,0)"><g transform="translate(0,20)"><g transform="translate(0,0)"><rect class="string-text" x="0" y="0" width="42" height="24"/><text x="4" y="20">value</text></g><g transform="translate(42,0)"><rect class="string-text" x="0" y="0" width="71" height="24"/><text x="4" y="20">e1.empno</text></g></g><g><text x="57" y="16" text-anchor="middle">select[0]</text></g></g><g class="vtree-node" transform="translate(-188,0)"><g transform="translate(0,20)"><g transform="translate(0,0)"><rect class="string-text" x="0" y="0" width="42" height="24"/><text x="4" y="20">value</text></g><g transform="translate(42,0)"><rect class="string-text" x="0" y="0" width="78" height="24"/><text x="4" y="20">e1.firstnme</text></g></g><g><text x="60" y="16" text-anchor="middle">select[1]</text></g></g><g class="vtree-node" transform="translate(-58,0)"><g transform="translate(0,20)"><g transform="translate(0,0)"><rect class="string-text" x="0" y="0" width="42" height="24"/><text x="4" y="20">value</text></g><g transform="translate(42,0)"><rect class="string-text" x="0" y="0" width="85" height="24"/><text x="4" y="20">e1.lastname</text></g></g><g><text x="64" y="16" text-anchor="middle">select[2]</text></g></g><g class="vtree-node" transform="translate(79,0)"><g transform="translate(0,20)"><g transform="translate(0,0)"><rect class="string-text" x="0" y="0" width="42" height="24"/><text x="4" y="20">value</text></g><g transform="translate(42,0)"><rect class="string-text" x="0" y="0" width="72" height="24"/><text x="4" y="20">e1.edlevel</text></g></g><g><text x="57" y="16" text-anchor="middle">select[3]</text></g></g><g class="vtree-node" transform="translate(203,0)"><g transform="translate(0,20)"><g transform="translate(0,0)"><rect class="string-text" x="0" y="0" width="42" height="25"/><text x="4" y="20">value</text></g><g transform="translate(42,0)"><rect class="string-text" x="0" y="0" width="65" height="25"/><text x="4" y="21">e2.salary</text></g></g><g><text x="54" y="16" text-anchor="middle">select[4]</text></g></g></g><g class="vtree-node" transform="translate(112,58)"><path class="vtree-link" d="M-61,45C-61,45 62,45 62,45"/><g class="vtree-node" transform="translate(-118,0)"><g transform="translate(0,20)"><g transform="translate(0,0)"><rect class="string-text" x="0" y="0" width="44" height="25"/><text x="4" y="20">value</text></g><g transform="translate(44,0)"><rect class="string-text" x="0" y="0" width="69" height="25"/><text x="4" y="21">employee</text></g><g transform="translate(0,25)"><rect class="string-text" x="0" y="0" width="44" height="24"/><text x="4" y="20">name</text></g><g transform="translate(44,25)"><rect class="string-text" x="0" y="0" width="69" height="24"/><text x="4" y="20">e1</text></g></g><g><text x="57" y="16" text-anchor="middle">from[0]</text></g></g><g class="vtree-node" transform="translate(5,0)"><g transform="translate(0,20)"><g transform="translate(0,0)"><rect class="string-text" x="0" y="0" width="44" height="25"/><text x="4" y="20">value</text></g><g transform="translate(44,0)"><rect class="string-text" x="0" y="0" width="69" height="25"/><text x="4" y="21">employee</text></g><g transform="translate(0,25)"><rect class="string-text" x="0" y="0" width="44" height="24"/><text x="4" y="20">name</text></g><g transform="translate(44,25)"><rect class="string-text" x="0" y="0" width="69" height="24"/><text x="4" y="20">e2</text></g></g><g><text x="57" y="16" text-anchor="middle">from[1]</text></g></g></g><g class="vtree-node" transform="translate(422,58)"><path class="vtree-link" d="M24,24C24,63 -106,63 -106,102"/><g class="vtree-node" transform="translate(24,78)"><path class="vtree-link" d="M15,24C15,24 145,24 145,24"/><path class="vtree-link" d="M-130,24C-130,24 15,24 15,24"/><g class="vtree-node" transform="translate(-154,0)"><path class="vtree-link" d="M24,24C24,67 -16,67 -16,110"/><g class="vtree-node" transform="translate(24,78)"><path class="vtree-link" d="M-40,32C-40,32 41,32 41,32"/><g class="vtree-node" transform="translate(-76,0)"><g transform="translate(0,20)"><rect class="string-text" x="0" y="0" width="71" height="24"/><text x="4" y="20">e1.empno</text></g><g><text x="36" y="16" text-anchor="middle">eq[0]</text></g></g><g class="vtree-node" transform="translate(5,0)"><g transform="translate(0,20)"><rect class="string-text" x="0" y="0" width="71" height="24"/><text x="4" y="20">e2.empno</text></g><g><text x="36" y="16" text-anchor="middle">eq[1]</text></g></g></g><g transform="translate(16,20)"><g transform="translate(0,0)"><rect class="string-text" x="0" y="0" width="8" height="8"/><text x="4" y="4"> </text></g><g transform="translate(8,0)"><rect class="string-text" x="0" y="0" width="8" height="8"/><text x="4" y="4"> </text></g></g><g><text x="24" y="16" text-anchor="middle">and[0]</text></g></g><g class="vtree-node" transform="translate(-9,0)"><path class="vtree-link" d="M24,24C24,67.5 1,67.5 1,111"/><g class="vtree-node" transform="translate(24,78)"><path class="vtree-link" d="M-23,33C-23,33 41,33 41,33"/><g class="vtree-node" transform="translate(-59,0)"><g transform="translate(0,21)"><rect class="string-text" x="0" y="0" width="72" height="24"/><text x="4" y="20">e1.edlevel</text></g><g><text x="36" y="17" text-anchor="middle">gt[0]</text></g></g><g class="vtree-node" transform="translate(23,0)"><g transform="translate(6,21)"><rect class="number-text" x="0" y="0" width="24" height="24"/><text x="4" y="20">17</text></g><g><text x="18" y="17" text-anchor="middle">gt[1]</text></g></g></g><g transform="translate(16,20)"><g transform="translate(0,0)"><rect class="string-text" x="0" y="0" width="8" height="8"/><text x="4" y="4"> </text></g><g transform="translate(8,0)"><rect class="string-text" x="0" y="0" width="8" height="8"/><text x="4" y="4"> </text></g></g><g><text x="24" y="16" text-anchor="middle">and[1]</text></g></g><g class="vtree-node" transform="translate(121,0)"><path class="vtree-link" d="M24,24C24,68 -4,68 -4,112"/><g class="vtree-node" transform="translate(24,78)"><path class="vtree-link" d="M-28,33C-28,33 38,33 38,33"/><g class="vtree-node" transform="translate(-61,0)"><g transform="translate(0,21)"><rect class="string-text" x="0" y="0" width="65" height="25"/><text x="4" y="21">e2.salary</text></g><g><text x="33" y="17" text-anchor="middle">gt[0]</text></g></g><g class="vtree-node" transform="translate(14,0)"><g transform="translate(0,21)"><rect class="number-text" x="0" y="0" width="47" height="24"/><text x="4" y="20">35000</text></g><g><text x="24" y="17" text-anchor="middle">gt[1]</text></g></g></g><g transform="translate(16,20)"><g transform="translate(0,0)"><rect class="string-text" x="0" y="0" width="8" height="8"/><text x="4" y="4"> </text></g><g transform="translate(8,0)"><rect class="string-text" x="0" y="0" width="8" height="8"/><text x="4" y="4"> </text></g></g><g><text x="24" y="16" text-anchor="middle">and[2]</text></g></g></g><g transform="translate(16,20)"><g transform="translate(0,0)"><rect class="string-text" x="0" y="0" width="8" height="8"/><text x="4" y="4"> </text></g><g transform="translate(8,0)"><rect class="string-text" x="0" y="0" width="8" height="8"/><text x="4" y="4"> </text></g></g><g><text x="24" y="16" text-anchor="middle">where</text></g></g><g transform="translate(0,0)"><rect class="string-text" x="0" y="0" width="8" height="8"/><text x="4" y="4"> </text></g><g transform="translate(8,0)"><rect class="string-text" x="0" y="0" width="8" height="8"/><text x="4" y="4"> </text></g></g></g></g></svg>