<?xml version="1.0" standalone="no"?>
<svg xmlns:xlink="http://www.w3.org/1999/xlink" xmlns="http://www.w3.org/2000/svg" class="vtree" width="960" height="800"><style>
.vtree-node text { font: 14px sans-serif; }
.vtree-link { fill: none; stroke: #888; stroke-width: 2px; }
.vtree-table { stroke-width: 2px; stroke: steelblue; }
path.vtree-table { fill: white; }
g.vtree-node rect { fill: white; stroke: black; stroke-width: 1px; }
g.vtree-node rect.number-text { fill: #d8f0ed; }
g.vtree-node rect.string-text { fill: #e7f0db; }
g.vtree-node rect.boolean-text { fill: #e1d8f0; }
g.vtree-node rect.null-text { fill: #888; }
</style><g class="vtree-root"><g class="vtree-node" transform="translate(480,138)"><g class="vtree-node" transform="translate(-27,0)"><path class="vtree-link" d="M27,12C27,59 -93,59 -93,106"/><g class="vtree-node" transform="translate(27,74)"><path class="vtree-link" d="M0,24C0,24 121,24 121,24"/><path class="vtree-link" d="M-120,24C-120,24 0,24 0,24"/><g class="vtree-node" transform="translate(-151,0)"><g transform="translate(1,20)"><g transform="translate(0,0)"><rect class="string-text" x="0" y="0" width="42" height="24"/><text x="4" y="20">value</text></g><g transform="translate(42,0)"><rect class="string-text" x="0" y="0" width="18" height="24"/><text x="4" y="20">A</text></g></g><g><text x="31" y="16" text-anchor="middle">select[0]</text></g></g><g class="vtree-node" transform="translate(-31,0)"><path class="vtree-link" d="M31,24C31,63 31,63 31,102"/><g class="vtree-node" transform="translate(10,78)"><path class="vtree-link" d="M21,24C21,63 21,63 21,102"/><g class="vtree-node" transform="translate(3,78)"><path class="vtree-link" d="M18,24C18,67 18,67 18,110"/><g class="vtree-node" transform="translate(-10,78)"><path class="vtree-link" d="M28,32C28,75 63,75 63,118"/><path class="vtree-link" d="M28,32C28,79 -22,79 -22,126"/><g class="vtree-node" transform="translate(-52,94)"><g transform="translate(0,20)"><g transform="translate(0,0)"><rect class="string-text" x="0" y="0" width="42" height="24"/><text x="4" y="20">value</text></g><g transform="translate(42,0)"><rect class="string-text" x="0" y="0" width="18" height="24"/><text x="4" y="20">B</text></g></g><g><text x="30" y="16" text-anchor="middle">select</text></g></g><g class="vtree-node" transform="translate(39,94)"><path class="vtree-link" d="M24,24C24,67 0,67 0,110"/><g class="vtree-node" transform="translate(24,78)"><path class="vtree-link" d="M-24,32C-24,32 25,32 25,32"/><g class="vtree-node" transform="translate(-45,0)"><g transform="translate(11,20)"><rect class="string-text" x="0" y="0" width="19" height="24"/><text x="4" y="20">C</text></g><g><text x="20" y="16" text-anchor="middle">eq[0]</text></g></g><g class="vtree-node" transform="translate(5,0)"><g transform="translate(12,20)"><rect class="number-text" x="0" y="0" width="16" height="24"/><text x="4" y="20">0</text></g><g><text x="20" y="16" text-anchor="middle">eq[1]</text></g></g></g><g transform="translate(16,20)"><g transform="translate(0,0)"><rect class="string-text" x="0" y="0" width="8" height="8"/><text x="4" y="4"> </text></g><g transform="translate(8,0)"><rect class="string-text" x="0" y="0" width="8" height="8"/><text x="4" y="4"> </text></g></g><g><text x="24" y="16" text-anchor="middle">where</text></g></g><g transform="translate(0,20)"><g transform="translate(0,0)"><rect class="string-text" x="0" y="0" width="36" height="24"/><text x="4" y="20">from</text></g><g transform="translate(36,0)"><rect class="string-text" x="0" y="0" width="19" height="24"/><text x="4" y="20">R</text></g></g><g><text x="28" y="16" text-anchor="middle">distinct</text></g></g><g transform="translate(10,20)"><g transform="translate(0,0)"><rect class="string-text" x="0" y="0" width="8" height="8"/><text x="4" y="4"> </text></g><g transform="translate(8,0)"><rect class="string-text" x="0" y="0" width="8" height="8"/><text x="4" y="4"> </text></g></g><g><text x="18" y="16" text-anchor="middle">max</text></g></g><g transform="translate(13,20)"><g transform="translate(0,0)"><rect class="string-text" x="0" y="0" width="8" height="8"/><text x="4" y="4"> </text></g><g transform="translate(8,0)"><rect class="string-text" x="0" y="0" width="8" height="8"/><text x="4" y="4"> </text></g></g><g><text x="21" y="16" text-anchor="middle">value</text></g></g><g transform="translate(23,20)"><g transform="translate(0,0)"><rect class="string-text" x="0" y="0" width="8" height="8"/><text x="4" y="4"> </text></g><g transform="translate(8,0)"><rect class="string-text" x="0" y="0" width="8" height="8"/><text x="4" y="4"> </text></g></g><g><text x="31" y="16" text-anchor="middle">select[1]</text></g></g><g class="vtree-node" transform="translate(90,0)"><g transform="translate(0,20)"><g transform="translate(0,0)"><rect class="string-text" x="0" y="0" width="42" height="24"/><text x="4" y="20">value</text></g><g transform="translate(42,0)"><rect class="string-text" x="0" y="0" width="19" height="24"/><text x="4" y="20">D</text></g></g><g><text x="31" y="16" text-anchor="middle">select[2]</text></g></g></g><g transform="translate(0,0)"><rect class="string-text" x="0" y="0" width="36" height="24"/><text x="4" y="20">from</text></g><g transform="translate(36,0)"><rect class="string-text" x="0" y="0" width="18" height="24"/><text x="4" y="20">S</text></g></g></g></g></svg>