<?xml version="1.0" standalone="no"?>
<svg xmlns:xlink="http://www.w3.org/1999/xlink" xmlns="http://www.w3.org/2000/svg" class="vtree" width="960" height="800"><style>
.vtree-node text { font: 14px sans-serif; }
.vtree-link { fill: none; stroke: #888; stroke-width: 2px; }
.vtree-table { stroke-width: 2px; stroke: steelblue; }
path.vtree-table { fill: white; }
g.vtree-node rect { fill: white; stroke: black; stroke-width: 1px; }
g.vtree-node rect.number-text { fill: #d8f0ed; }
g.vtree-node rect.string-text { fill: #e7f0db; }
g.vtree-node rect.boolean-text { fill: #e1d8f0; }
g.vtree-node rect.null-text { fill: #888; }
</style><g class="vtree-root" transform="translate(264.2975638616692,54.3206579523588)scale(0.38209061845671927)"><g class="vtree-node" transform="translate(480,45)"><g class="vtree-node" transform="translate(-8,0)"><path class="vtree-link" d="M8,4C8,47.5 1090,47.5 1090,91"/><path class="vtree-link" d="M8,4C8,43 302,43 302,82"/><path class="vtree-link" d="M8,4C8,53 -522,53 -522,102"/><path class="vtree-link" d="M8,4C8,47 -949,47 -949,90"/><g class="vtree-node" transform="translate(-851,58)"><path class="vtree-link" d="M-98,32C-98,32 159,32 159,32"/><g class="vtree-node" transform="translate(-253,0)"><path class="vtree-link" d="M155,32C155,79 155,79 155,126"/><g class="vtree-node" transform="translate(129,94)"><g transform="translate(0,20)"><g transform="translate(0,0)"><rect class="string-text" x="0" y="0" width="35" height="24"/><text x="4" y="20">sum</text></g><g transform="translate(35,0)"><rect class="number-text" x="0" y="0" width="16" height="24"/><text x="4" y="20">1</text></g></g><g><text x="26" y="16" text-anchor="middle">value</text></g></g><g transform="translate(0,20)"><g transform="translate(0,0)"><rect class="string-text" x="0" y="0" width="44" height="24"/><text x="4" y="20">name</text></g><g transform="translate(44,0)"><rect class="string-text" x="0" y="0" width="265" height="24"/><text x="4" y="20">cnt:tweets_5460F7F804494E7CB9FD1...</text></g></g><g><text x="155" y="16" text-anchor="middle">select[0]</text></g></g><g class="vtree-node" transform="translate(96,0)"><path class="vtree-link" d="M63,32C63,75 63,75 63,118"/><g class="vtree-node" transform="translate(42,94)"><path class="vtree-link" d="M21,24C21,67 -9,67 -9,110"/><g class="vtree-node" transform="translate(21,78)"><path class="vtree-link" d="M-30,24C-30,24 68,24 68,24"/><g class="vtree-node" transform="translate(-93,0)"><g transform="translate(0,20)"><rect class="string-text" x="0" y="0" width="126" height="24"/><text x="4" y="20">tweets.state_name</text></g><g><text x="63" y="16" text-anchor="middle">cast[0]</text></g></g><g class="vtree-node" transform="translate(43,0)"><path class="vtree-link" d="M25,24C25,63 25,63 25,102"/><g class="vtree-node" transform="translate(9,78)"><g transform="translate(8,20)"><g transform="translate(0,0)"><rect class="string-text" x="0" y="0" width="8" height="8"/><text x="4" y="4"> </text></g><g transform="translate(8,0)"><rect class="string-text" x="0" y="0" width="8" height="8"/><text x="4" y="4"> </text></g></g><g><text x="16" y="16" text-anchor="middle">text</text></g></g><g transform="translate(17,20)"><g transform="translate(0,0)"><rect class="string-text" x="0" y="0" width="8" height="8"/><text x="4" y="4"> </text></g><g transform="translate(8,0)"><rect class="string-text" x="0" y="0" width="8" height="8"/><text x="4" y="4"> </text></g></g><g><text x="25" y="16" text-anchor="middle">cast[1]</text></g></g></g><g transform="translate(13,20)"><g transform="translate(0,0)"><rect class="string-text" x="0" y="0" width="8" height="8"/><text x="4" y="4"> </text></g><g transform="translate(8,0)"><rect class="string-text" x="0" y="0" width="8" height="8"/><text x="4" y="4"> </text></g></g><g><text x="21" y="16" text-anchor="middle">value</text></g></g><g transform="translate(0,20)"><g transform="translate(0,0)"><rect class="string-text" x="0" y="0" width="44" height="24"/><text x="4" y="20">name</text></g><g transform="translate(44,0)"><rect class="string-text" x="0" y="0" width="82" height="24"/><text x="4" y="20">state_name</text></g></g><g><text x="63" y="16" text-anchor="middle">select[1]</text></g></g></g><g class="vtree-node" transform="translate(-589,58)"><g transform="translate(0,20)"><g transform="translate(0,0)"><rect class="string-text" x="0" y="0" width="44" height="24"/><text x="4" y="20">value</text></g><g transform="translate(44,0)"><rect class="string-text" x="0" y="0" width="89" height="24"/><text x="4" y="20">public.tweets</text></g><g transform="translate(0,24)"><rect class="string-text" x="0" y="0" width="44" height="24"/><text x="4" y="20">name</text></g><g transform="translate(44,24)"><rect class="string-text" x="0" y="0" width="89" height="24"/><text x="4" y="20">tweets</text></g></g><g><text x="67" y="16" text-anchor="middle">from</text></g></g><g class="vtree-node" transform="translate(278,58)"><path class="vtree-link" d="M24,24C24,63 -213,63 -213,102"/><g class="vtree-node" transform="translate(24,78)"><path class="vtree-link" d="M-237,24C-237,24 516,24 516,24"/><g class="vtree-node" transform="translate(-261,0)"><path class="vtree-link" d="M24,24C24,63 -303,63 -303,102"/><g class="vtree-node" transform="translate(24,78)"><path class="vtree-link" d="M-327,24C-327,24 189,24 189,24"/><g class="vtree-node" transform="translate(-345,0)"><path class="vtree-link" d="M18,24C18,63 -12,63 -12,102"/><g class="vtree-node" transform="translate(18,78)"><path class="vtree-link" d="M-30,24C-30,24 159,24 159,24"/><g class="vtree-node" transform="translate(-55,0)"><path class="vtree-link" d="M25,24C25,67 -69,67 -69,110"/><g class="vtree-node" transform="translate(25,78)"><path class="vtree-link" d="M-94,24C-94,24 65,24 65,24"/><g class="vtree-node" transform="translate(-154,0)"><g transform="translate(0,20)"><g transform="translate(0,0)"><rect class="string-text" x="0" y="0" width="42" height="24"/><text x="4" y="20">literal</text></g><g transform="translate(42,0)"><rect class="string-text" x="0" y="0" width="77" height="24"/><text x="4" y="20">QUARTER</text></g></g><g><text x="60" y="16" text-anchor="middle">date_trunc[0]</text></g></g><g class="vtree-node" transform="translate(20,0)"><path class="vtree-link" d="M45,24C45,67 15,67 15,110"/><g class="vtree-node" transform="translate(45,78)"><path class="vtree-link" d="M-30,24C-30,24 64,24 64,24"/><g class="vtree-node" transform="translate(-90,0)"><g transform="translate(0,20)"><rect class="string-text" x="0" y="0" width="119" height="24"/><text x="4" y="20">tweets.created_at</text></g><g><text x="60" y="16" text-anchor="middle">cast[0]</text></g></g><g class="vtree-node" transform="translate(39,0)"><path class="vtree-link" d="M25,24C25,63 25,63 25,102"/><g class="vtree-node" transform="translate(7,78)"><g transform="translate(10,20)"><g transform="translate(0,0)"><rect class="string-text" x="0" y="0" width="8" height="8"/><text x="4" y="4"> </text></g><g transform="translate(8,0)"><rect class="string-text" x="0" y="0" width="8" height="8"/><text x="4" y="4"> </text></g></g><g><text x="18" y="16" text-anchor="middle">date</text></g></g><g transform="translate(17,20)"><g transform="translate(0,0)"><rect class="string-text" x="0" y="0" width="8" height="8"/><text x="4" y="4"> </text></g><g transform="translate(8,0)"><rect class="string-text" x="0" y="0" width="8" height="8"/><text x="4" y="4"> </text></g></g><g><text x="25" y="16" text-anchor="middle">cast[1]</text></g></g></g><g transform="translate(37,20)"><g transform="translate(0,0)"><rect class="string-text" x="0" y="0" width="8" height="8"/><text x="4" y="4"> </text></g><g transform="translate(8,0)"><rect class="string-text" x="0" y="0" width="8" height="8"/><text x="4" y="4"> </text></g></g><g><text x="45" y="16" text-anchor="middle">date_trunc[1]</text></g></g></g><g transform="translate(17,20)"><g transform="translate(0,0)"><rect class="string-text" x="0" y="0" width="8" height="8"/><text x="4" y="4"> </text></g><g transform="translate(8,0)"><rect class="string-text" x="0" y="0" width="8" height="8"/><text x="4" y="4"> </text></g></g><g><text x="25" y="16" text-anchor="middle">cast[0]</text></g></g><g class="vtree-node" transform="translate(134,0)"><path class="vtree-link" d="M25,24C25,63 25,63 25,102"/><g class="vtree-node" transform="translate(7,78)"><g transform="translate(10,20)"><g transform="translate(0,0)"><rect class="string-text" x="0" y="0" width="8" height="8"/><text x="4" y="4"> </text></g><g transform="translate(8,0)"><rect class="string-text" x="0" y="0" width="8" height="8"/><text x="4" y="4"> </text></g></g><g><text x="18" y="16" text-anchor="middle">date</text></g></g><g transform="translate(17,20)"><g transform="translate(0,0)"><rect class="string-text" x="0" y="0" width="8" height="8"/><text x="4" y="4"> </text></g><g transform="translate(8,0)"><rect class="string-text" x="0" y="0" width="8" height="8"/><text x="4" y="4"> </text></g></g><g><text x="25" y="16" text-anchor="middle">cast[1]</text></g></g></g><g transform="translate(10,20)"><g transform="translate(0,0)"><rect class="string-text" x="0" y="0" width="8" height="8"/><text x="4" y="4"> </text></g><g transform="translate(8,0)"><rect class="string-text" x="0" y="0" width="8" height="8"/><text x="4" y="4"> </text></g></g><g><text x="18" y="16" text-anchor="middle">in[0]</text></g></g><g class="vtree-node" transform="translate(171,0)"><path class="vtree-link" d="M18,24C18,63 -200,63 -200,102"/><g class="vtree-node" transform="translate(18,78)"><path class="vtree-link" d="M0,24C0,24 218,24 218,24"/><path class="vtree-link" d="M-218,24C-218,24 0,24 0,24"/><g class="vtree-node" transform="translate(-230,0)"><path class="vtree-link" d="M12,24C12,67 12,67 12,110"/><g class="vtree-node" transform="translate(-92,78)"><g transform="translate(0,20)"><g transform="translate(0,0)"><rect class="string-text" x="0" y="0" width="42" height="24"/><text x="4" y="20">literal</text></g><g transform="translate(42,0)"><rect class="string-text" x="0" y="0" width="166" height="24"/><text x="4" y="20">2016-10-01 00:00:00.000</text></g></g><g><text x="104" y="16" text-anchor="middle">timestamp</text></g></g><g transform="translate(4,20)"><g transform="translate(0,0)"><rect class="string-text" x="0" y="0" width="8" height="8"/><text x="4" y="4"> </text></g><g transform="translate(8,0)"><rect class="string-text" x="0" y="0" width="8" height="8"/><text x="4" y="4"> </text></g></g><g><text x="12" y="16" text-anchor="middle">[0]</text></g></g><g class="vtree-node" transform="translate(-12,0)"><path class="vtree-link" d="M12,24C12,67 12,67 12,110"/><g class="vtree-node" transform="translate(-92,78)"><g transform="translate(0,20)"><g transform="translate(0,0)"><rect class="string-text" x="0" y="0" width="42" height="24"/><text x="4" y="20">literal</text></g><g transform="translate(42,0)"><rect class="string-text" x="0" y="0" width="166" height="24"/><text x="4" y="20">2017-01-01 00:00:00.000</text></g></g><g><text x="104" y="16" text-anchor="middle">timestamp</text></g></g><g transform="translate(4,20)"><g transform="translate(0,0)"><rect class="string-text" x="0" y="0" width="8" height="8"/><text x="4" y="4"> </text></g><g transform="translate(8,0)"><rect class="string-text" x="0" y="0" width="8" height="8"/><text x="4" y="4"> </text></g></g><g><text x="12" y="16" text-anchor="middle">[1]</text></g></g><g class="vtree-node" transform="translate(206,0)"><path class="vtree-link" d="M12,24C12,67 12,67 12,110"/><g class="vtree-node" transform="translate(-92,78)"><g transform="translate(0,20)"><g transform="translate(0,0)"><rect class="string-text" x="0" y="0" width="42" height="24"/><text x="4" y="20">literal</text></g><g transform="translate(42,0)"><rect class="string-text" x="0" y="0" width="166" height="24"/><text x="4" y="20">2017-04-01 00:00:00.000</text></g></g><g><text x="104" y="16" text-anchor="middle">timestamp</text></g></g><g transform="translate(4,20)"><g transform="translate(0,0)"><rect class="string-text" x="0" y="0" width="8" height="8"/><text x="4" y="4"> </text></g><g transform="translate(8,0)"><rect class="string-text" x="0" y="0" width="8" height="8"/><text x="4" y="4"> </text></g></g><g><text x="12" y="16" text-anchor="middle">[2]</text></g></g></g><g transform="translate(14,20)"><circle cx="4" cy="4" r="4"/></g><g><text x="18" y="16" text-anchor="middle">in[1]</text></g></g></g><g transform="translate(16,20)"><g transform="translate(0,0)"><rect class="string-text" x="0" y="0" width="8" height="8"/><text x="4" y="4"> </text></g><g transform="translate(8,0)"><rect class="string-text" x="0" y="0" width="8" height="8"/><text x="4" y="4"> </text></g></g><g><text x="24" y="16" text-anchor="middle">and[0]</text></g></g><g class="vtree-node" transform="translate(492,0)"><path class="vtree-link" d="M24,24C24,63.5 1,63.5 1,103"/><g class="vtree-node" transform="translate(24,78)"><path class="vtree-link" d="M-23,25C-23,25 214,25 214,25"/><g class="vtree-node" transform="translate(-41,0)"><path class="vtree-link" d="M18,25C18,64 -63,64 -63,103"/><g class="vtree-node" transform="translate(18,79)"><path class="vtree-link" d="M-81,24C-81,24 133,24 133,24"/><g class="vtree-node" transform="translate(-112,0)"><path class="vtree-link" d="M31,24C31,63 1,63 1,102"/><g class="vtree-node" transform="translate(31,78)"><path class="vtree-link" d="M-30,24C-30,24 102,24 102,24"/><g class="vtree-node" transform="translate(-55,0)"><path class="vtree-link" d="M25,24C25,63 25,63 25,102"/><g class="vtree-node" transform="translate(4,78)"><path class="vtree-link" d="M21,24C21,63 -9,63 -9,102"/><g class="vtree-node" transform="translate(21,78)"><path class="vtree-link" d="M-30,24C-30,24 72,24 72,24"/><g class="vtree-node" transform="translate(-55,0)"><path class="vtree-link" d="M25,24C25,67 -5,67 -5,110"/><g class="vtree-node" transform="translate(25,78)"><path class="vtree-link" d="M-30,24C-30,24 42,24 42,24"/><g class="vtree-node" transform="translate(-68,0)"><g transform="translate(0,20)"><rect class="string-text" x="0" y="0" width="75" height="24"/><text x="4" y="20">tweets.text</text></g><g><text x="38" y="16" text-anchor="middle">cast[0]</text></g></g><g class="vtree-node" transform="translate(17,0)"><path class="vtree-link" d="M25,24C25,63 25,63 25,102"/><g class="vtree-node" transform="translate(9,78)"><g transform="translate(8,20)"><g transform="translate(0,0)"><rect class="string-text" x="0" y="0" width="8" height="8"/><text x="4" y="4"> </text></g><g transform="translate(8,0)"><rect class="string-text" x="0" y="0" width="8" height="8"/><text x="4" y="4"> </text></g></g><g><text x="16" y="16" text-anchor="middle">text</text></g></g><g transform="translate(17,20)"><g transform="translate(0,0)"><rect class="string-text" x="0" y="0" width="8" height="8"/><text x="4" y="4"> </text></g><g transform="translate(8,0)"><rect class="string-text" x="0" y="0" width="8" height="8"/><text x="4" y="4"> </text></g></g><g><text x="25" y="16" text-anchor="middle">cast[1]</text></g></g></g><g transform="translate(17,20)"><g transform="translate(0,0)"><rect class="string-text" x="0" y="0" width="8" height="8"/><text x="4" y="4"> </text></g><g transform="translate(8,0)"><rect class="string-text" x="0" y="0" width="8" height="8"/><text x="4" y="4"> </text></g></g><g><text x="25" y="16" text-anchor="middle">cast[0]</text></g></g><g class="vtree-node" transform="translate(47,0)"><path class="vtree-link" d="M25,24C25,63 25,63 25,102"/><g class="vtree-node" transform="translate(9,78)"><g transform="translate(8,20)"><g transform="translate(0,0)"><rect class="string-text" x="0" y="0" width="8" height="8"/><text x="4" y="4"> </text></g><g transform="translate(8,0)"><rect class="string-text" x="0" y="0" width="8" height="8"/><text x="4" y="4"> </text></g></g><g><text x="16" y="16" text-anchor="middle">text</text></g></g><g transform="translate(17,20)"><g transform="translate(0,0)"><rect class="string-text" x="0" y="0" width="8" height="8"/><text x="4" y="4"> </text></g><g transform="translate(8,0)"><rect class="string-text" x="0" y="0" width="8" height="8"/><text x="4" y="4"> </text></g></g><g><text x="25" y="16" text-anchor="middle">cast[1]</text></g></g></g><g transform="translate(13,20)"><g transform="translate(0,0)"><rect class="string-text" x="0" y="0" width="8" height="8"/><text x="4" y="4"> </text></g><g transform="translate(8,0)"><rect class="string-text" x="0" y="0" width="8" height="8"/><text x="4" y="4"> </text></g></g><g><text x="21" y="16" text-anchor="middle">lower</text></g></g><g transform="translate(17,20)"><g transform="translate(0,0)"><rect class="string-text" x="0" y="0" width="8" height="8"/><text x="4" y="4"> </text></g><g transform="translate(8,0)"><rect class="string-text" x="0" y="0" width="8" height="8"/><text x="4" y="4"> </text></g></g><g><text x="25" y="16" text-anchor="middle">cast[0]</text></g></g><g class="vtree-node" transform="translate(77,0)"><path class="vtree-link" d="M25,24C25,63 25,63 25,102"/><g class="vtree-node" transform="translate(9,78)"><g transform="translate(8,20)"><g transform="translate(0,0)"><rect class="string-text" x="0" y="0" width="8" height="8"/><text x="4" y="4"> </text></g><g transform="translate(8,0)"><rect class="string-text" x="0" y="0" width="8" height="8"/><text x="4" y="4"> </text></g></g><g><text x="16" y="16" text-anchor="middle">text</text></g></g><g transform="translate(17,20)"><g transform="translate(0,0)"><rect class="string-text" x="0" y="0" width="8" height="8"/><text x="4" y="4"> </text></g><g transform="translate(8,0)"><rect class="string-text" x="0" y="0" width="8" height="8"/><text x="4" y="4"> </text></g></g><g><text x="25" y="16" text-anchor="middle">cast[1]</text></g></g></g><g transform="translate(23,20)"><g transform="translate(0,0)"><rect class="string-text" x="0" y="0" width="8" height="8"/><text x="4" y="4"> </text></g><g transform="translate(8,0)"><rect class="string-text" x="0" y="0" width="8" height="8"/><text x="4" y="4"> </text></g></g><g><text x="31" y="16" text-anchor="middle">strpos[0]</text></g></g><g class="vtree-node" transform="translate(102,0)"><path class="vtree-link" d="M31,24C31,67 1,67 1,110"/><g class="vtree-node" transform="translate(31,78)"><path class="vtree-link" d="M-30,24C-30,24 51,24 51,24"/><g class="vtree-node" transform="translate(-77,0)"><g transform="translate(0,20)"><g transform="translate(0,0)"><rect class="string-text" x="0" y="0" width="42" height="24"/><text x="4" y="20">literal</text></g><g transform="translate(42,0)"><rect class="string-text" x="0" y="0" width="51" height="24"/><text x="4" y="20">iphone</text></g></g><g><text x="47" y="16" text-anchor="middle">cast[0]</text></g></g><g class="vtree-node" transform="translate(26,0)"><path class="vtree-link" d="M25,24C25,63 25,63 25,102"/><g class="vtree-node" transform="translate(9,78)"><g transform="translate(8,20)"><g transform="translate(0,0)"><rect class="string-text" x="0" y="0" width="8" height="8"/><text x="4" y="4"> </text></g><g transform="translate(8,0)"><rect class="string-text" x="0" y="0" width="8" height="8"/><text x="4" y="4"> </text></g></g><g><text x="16" y="16" text-anchor="middle">text</text></g></g><g transform="translate(17,20)"><g transform="translate(0,0)"><rect class="string-text" x="0" y="0" width="8" height="8"/><text x="4" y="4"> </text></g><g transform="translate(8,0)"><rect class="string-text" x="0" y="0" width="8" height="8"/><text x="4" y="4"> </text></g></g><g><text x="25" y="16" text-anchor="middle">cast[1]</text></g></g></g><g transform="translate(23,20)"><g transform="translate(0,0)"><rect class="string-text" x="0" y="0" width="8" height="8"/><text x="4" y="4"> </text></g><g transform="translate(8,0)"><rect class="string-text" x="0" y="0" width="8" height="8"/><text x="4" y="4"> </text></g></g><g><text x="31" y="16" text-anchor="middle">strpos[1]</text></g></g></g><g transform="translate(10,21)"><g transform="translate(0,0)"><rect class="string-text" x="0" y="0" width="8" height="8"/><text x="4" y="4"> </text></g><g transform="translate(8,0)"><rect class="string-text" x="0" y="0" width="8" height="8"/><text x="4" y="4"> </text></g></g><g><text x="18" y="17" text-anchor="middle">gt[0]</text></g></g><g class="vtree-node" transform="translate(196,0)"><g transform="translate(10,21)"><rect class="number-text" x="0" y="0" width="16" height="24"/><text x="4" y="20">0</text></g><g><text x="18" y="17" text-anchor="middle">gt[1]</text></g></g></g><g transform="translate(16,20)"><g transform="translate(0,0)"><rect class="string-text" x="0" y="0" width="8" height="8"/><text x="4" y="4"> </text></g><g transform="translate(8,0)"><rect class="string-text" x="0" y="0" width="8" height="8"/><text x="4" y="4"> </text></g></g><g><text x="24" y="16" text-anchor="middle">and[1]</text></g></g></g><g transform="translate(16,20)"><g transform="translate(0,0)"><rect class="string-text" x="0" y="0" width="8" height="8"/><text x="4" y="4"> </text></g><g transform="translate(8,0)"><rect class="string-text" x="0" y="0" width="8" height="8"/><text x="4" y="4"> </text></g></g><g><text x="24" y="16" text-anchor="middle">where</text></g></g><g class="vtree-node" transform="translate(1060,58)"><g transform="translate(1,21)"><g transform="translate(0,0)"><rect class="string-text" x="0" y="0" width="42" height="24"/><text x="4" y="20">value</text></g><g transform="translate(42,0)"><rect class="number-text" x="0" y="0" width="16" height="24"/><text x="4" y="20">2</text></g></g><g><text x="30" y="17" text-anchor="middle">groupby</text></g></g><g transform="translate(0,0)"><rect class="string-text" x="0" y="0" width="8" height="8"/><text x="4" y="4"> </text></g><g transform="translate(8,0)"><rect class="string-text" x="0" y="0" width="8" height="8"/><text x="4" y="4"> </text></g></g></g></g></svg>