<?xml version="1.0" standalone="no"?>
<svg xmlns:xlink="http://www.w3.org/1999/xlink" xmlns="http://www.w3.org/2000/svg" class="vtree" width="960" height="800"><style>
.vtree-node text { font: 14px sans-serif; }
.vtree-link { fill: none; stroke: #888; stroke-width: 2px; }
.vtree-table { stroke-width: 2px; stroke: steelblue; }
path.vtree-table { fill: white; }
g.vtree-node rect { fill: white; stroke: black; stroke-width: 1px; }
g.vtree-node rect.number-text { fill: #d8f0ed; }
g.vtree-node rect.string-text { fill: #e7f0db; }
g.vtree-node rect.boolean-text { fill: #e1d8f0; }
g.vtree-node rect.null-text { fill: #888; }
</style><g class="vtree-root" transform="translate(234.28988824884334,31.720510858903907)scale(0.4504596391899403)"><g class="vtree-node" transform="translate(480,193)"><g class="vtree-node" transform="translate(-8,0)"><path class="vtree-link" d="M8,4C8,47.5 891,47.5 891,91"/><path class="vtree-link" d="M8,4C8,43 294,43 294,82"/><path class="vtree-link" d="M8,4C8,53 -339,53 -339,102"/><path class="vtree-link" d="M8,4C8,47 -750,47 -750,90"/><g class="vtree-node" transform="translate(-660,58)"><path class="vtree-link" d="M-90,32C-90,32 159,32 159,32"/><g class="vtree-node" transform="translate(-245,0)"><path class="vtree-link" d="M155,32C155,79 155,79 155,126"/><g class="vtree-node" transform="translate(129,94)"><g transform="translate(0,20)"><g transform="translate(0,0)"><rect class="string-text" x="0" y="0" width="35" height="24"/><text x="4" y="20">sum</text></g><g transform="translate(35,0)"><rect class="number-text" x="0" y="0" width="16" height="24"/><text x="4" y="20">1</text></g></g><g><text x="26" y="16" text-anchor="middle">value</text></g></g><g transform="translate(0,20)"><g transform="translate(0,0)"><rect class="string-text" x="0" y="0" width="44" height="24"/><text x="4" y="20">name</text></g><g transform="translate(44,0)"><rect class="string-text" x="0" y="0" width="265" height="24"/><text x="4" y="20">cnt:tweets_5460F7F804494E7CB9FD1...</text></g></g><g><text x="155" y="16" text-anchor="middle">select[0]</text></g></g><g class="vtree-node" transform="translate(74,0)"><g transform="translate(0,20)"><g transform="translate(0,0)"><rect class="string-text" x="0" y="0" width="44" height="24"/><text x="4" y="20">value</text></g><g transform="translate(44,0)"><rect class="string-text" x="0" y="0" width="126" height="24"/><text x="4" y="20">tweets.state_name</text></g><g transform="translate(0,24)"><rect class="string-text" x="0" y="0" width="44" height="24"/><text x="4" y="20">name</text></g><g transform="translate(44,24)"><rect class="string-text" x="0" y="0" width="126" height="24"/><text x="4" y="20">state_name</text></g></g><g><text x="85" y="16" text-anchor="middle">select[1]</text></g></g></g><g class="vtree-node" transform="translate(-406,58)"><g transform="translate(0,20)"><g transform="translate(0,0)"><rect class="string-text" x="0" y="0" width="44" height="24"/><text x="4" y="20">value</text></g><g transform="translate(44,0)"><rect class="string-text" x="0" y="0" width="89" height="24"/><text x="4" y="20">public.tweets</text></g><g transform="translate(0,24)"><rect class="string-text" x="0" y="0" width="44" height="24"/><text x="4" y="20">name</text></g><g transform="translate(44,24)"><rect class="string-text" x="0" y="0" width="89" height="24"/><text x="4" y="20">tweets</text></g></g><g><text x="67" y="16" text-anchor="middle">from</text></g></g><g class="vtree-node" transform="translate(270,58)"><path class="vtree-link" d="M24,24C24,63 -82,63 -82,102"/><g class="vtree-node" transform="translate(24,78)"><path class="vtree-link" d="M-106,24C-106,24 456,24 456,24"/><g class="vtree-node" transform="translate(-130,0)"><path class="vtree-link" d="M24,24C24,63 -303,63 -303,102"/><g class="vtree-node" transform="translate(24,78)"><path class="vtree-link" d="M-327,24C-327,24 129,24 129,24"/><g class="vtree-node" transform="translate(-345,0)"><path class="vtree-link" d="M18,24C18,67 -46,67 -46,110"/><g class="vtree-node" transform="translate(18,78)"><path class="vtree-link" d="M-64,32C-64,32 65,32 65,32"/><g class="vtree-node" transform="translate(-124,0)"><g transform="translate(0,20)"><g transform="translate(0,0)"><rect class="string-text" x="0" y="0" width="42" height="24"/><text x="4" y="20">literal</text></g><g transform="translate(42,0)"><rect class="string-text" x="0" y="0" width="77" height="24"/><text x="4" y="20">QUARTER</text></g></g><g><text x="60" y="16" text-anchor="middle">date_trunc[0]</text></g></g><g class="vtree-node" transform="translate(5,0)"><g transform="translate(0,20)"><rect class="string-text" x="0" y="0" width="119" height="24"/><text x="4" y="20">tweets.created_at</text></g><g><text x="60" y="16" text-anchor="middle">date_trunc[1]</text></g></g></g><g transform="translate(10,20)"><g transform="translate(0,0)"><rect class="string-text" x="0" y="0" width="8" height="8"/><text x="4" y="4"> </text></g><g transform="translate(8,0)"><rect class="string-text" x="0" y="0" width="8" height="8"/><text x="4" y="4"> </text></g></g><g><text x="18" y="16" text-anchor="middle">in[0]</text></g></g><g class="vtree-node" transform="translate(111,0)"><path class="vtree-link" d="M18,24C18,63 -200,63 -200,102"/><g class="vtree-node" transform="translate(18,78)"><path class="vtree-link" d="M0,24C0,24 218,24 218,24"/><path class="vtree-link" d="M-218,24C-218,24 0,24 0,24"/><g class="vtree-node" transform="translate(-230,0)"><path class="vtree-link" d="M12,24C12,67 12,67 12,110"/><g class="vtree-node" transform="translate(-92,78)"><g transform="translate(0,20)"><g transform="translate(0,0)"><rect class="string-text" x="0" y="0" width="42" height="24"/><text x="4" y="20">literal</text></g><g transform="translate(42,0)"><rect class="string-text" x="0" y="0" width="166" height="24"/><text x="4" y="20">2016-10-01 00:00:00.000</text></g></g><g><text x="104" y="16" text-anchor="middle">timestamp</text></g></g><g transform="translate(4,20)"><g transform="translate(0,0)"><rect class="string-text" x="0" y="0" width="8" height="8"/><text x="4" y="4"> </text></g><g transform="translate(8,0)"><rect class="string-text" x="0" y="0" width="8" height="8"/><text x="4" y="4"> </text></g></g><g><text x="12" y="16" text-anchor="middle">[0]</text></g></g><g class="vtree-node" transform="translate(-12,0)"><path class="vtree-link" d="M12,24C12,67 12,67 12,110"/><g class="vtree-node" transform="translate(-92,78)"><g transform="translate(0,20)"><g transform="translate(0,0)"><rect class="string-text" x="0" y="0" width="42" height="24"/><text x="4" y="20">literal</text></g><g transform="translate(42,0)"><rect class="string-text" x="0" y="0" width="166" height="24"/><text x="4" y="20">2017-01-01 00:00:00.000</text></g></g><g><text x="104" y="16" text-anchor="middle">timestamp</text></g></g><g transform="translate(4,20)"><g transform="translate(0,0)"><rect class="string-text" x="0" y="0" width="8" height="8"/><text x="4" y="4"> </text></g><g transform="translate(8,0)"><rect class="string-text" x="0" y="0" width="8" height="8"/><text x="4" y="4"> </text></g></g><g><text x="12" y="16" text-anchor="middle">[1]</text></g></g><g class="vtree-node" transform="translate(206,0)"><path class="vtree-link" d="M12,24C12,67 12,67 12,110"/><g class="vtree-node" transform="translate(-92,78)"><g transform="translate(0,20)"><g transform="translate(0,0)"><rect class="string-text" x="0" y="0" width="42" height="24"/><text x="4" y="20">literal</text></g><g transform="translate(42,0)"><rect class="string-text" x="0" y="0" width="166" height="24"/><text x="4" y="20">2017-04-01 00:00:00.000</text></g></g><g><text x="104" y="16" text-anchor="middle">timestamp</text></g></g><g transform="translate(4,20)"><g transform="translate(0,0)"><rect class="string-text" x="0" y="0" width="8" height="8"/><text x="4" y="4"> </text></g><g transform="translate(8,0)"><rect class="string-text" x="0" y="0" width="8" height="8"/><text x="4" y="4"> </text></g></g><g><text x="12" y="16" text-anchor="middle">[2]</text></g></g></g><g transform="translate(14,20)"><circle cx="4" cy="4" r="4"/></g><g><text x="18" y="16" text-anchor="middle">in[1]</text></g></g></g><g transform="translate(16,20)"><g transform="translate(0,0)"><rect class="string-text" x="0" y="0" width="8" height="8"/><text x="4" y="4"> </text></g><g transform="translate(8,0)"><rect class="string-text" x="0" y="0" width="8" height="8"/><text x="4" y="4"> </text></g></g><g><text x="24" y="16" text-anchor="middle">and[0]</text></g></g><g class="vtree-node" transform="translate(432,0)"><path class="vtree-link" d="M24,24C24,67 -39,67 -39,110"/><g class="vtree-node" transform="translate(24,78)"><path class="vtree-link" d="M-63,32C-63,32 43,32 43,32"/><g class="vtree-node" transform="translate(-101,0)"><g transform="translate(0,20)"><rect class="string-text" x="0" y="0" width="75" height="24"/><text x="4" y="20">tweets.text</text></g><g><text x="38" y="16" text-anchor="middle">like[0]</text></g></g><g class="vtree-node" transform="translate(-16,0)"><g transform="translate(0,20)"><g transform="translate(0,0)"><rect class="string-text" x="0" y="0" width="42" height="24"/><text x="4" y="20">literal</text></g><g transform="translate(42,0)"><rect class="string-text" x="0" y="0" width="75" height="24"/><text x="4" y="20">%iphone%</text></g></g><g><text x="59" y="16" text-anchor="middle">like[1]</text></g></g></g><g transform="translate(16,20)"><g transform="translate(0,0)"><rect class="string-text" x="0" y="0" width="8" height="8"/><text x="4" y="4"> </text></g><g transform="translate(8,0)"><rect class="string-text" x="0" y="0" width="8" height="8"/><text x="4" y="4"> </text></g></g><g><text x="24" y="16" text-anchor="middle">and[1]</text></g></g></g><g transform="translate(16,20)"><g transform="translate(0,0)"><rect class="string-text" x="0" y="0" width="8" height="8"/><text x="4" y="4"> </text></g><g transform="translate(8,0)"><rect class="string-text" x="0" y="0" width="8" height="8"/><text x="4" y="4"> </text></g></g><g><text x="24" y="16" text-anchor="middle">where</text></g></g><g class="vtree-node" transform="translate(861,58)"><g transform="translate(1,21)"><g transform="translate(0,0)"><rect class="string-text" x="0" y="0" width="42" height="24"/><text x="4" y="20">value</text></g><g transform="translate(42,0)"><rect class="number-text" x="0" y="0" width="16" height="24"/><text x="4" y="20">2</text></g></g><g><text x="30" y="17" text-anchor="middle">groupby</text></g></g><g transform="translate(0,0)"><rect class="string-text" x="0" y="0" width="8" height="8"/><text x="4" y="4"> </text></g><g transform="translate(8,0)"><rect class="string-text" x="0" y="0" width="8" height="8"/><text x="4" y="4"> </text></g></g></g></g></svg>