<?xml version="1.0" standalone="no"?>
<svg xmlns:xlink="http://www.w3.org/1999/xlink" xmlns="http://www.w3.org/2000/svg" class="vtree" width="960" height="800"><style>
.vtree-node text { font: 14px sans-serif; }
.vtree-link { fill: none; stroke: #888; stroke-width: 2px; }
.vtree-table { stroke-width: 2px; stroke: steelblue; }
path.vtree-table { fill: white; }
g.vtree-node rect { fill: white; stroke: black; stroke-width: 1px; }
g.vtree-node rect.number-text { fill: #d8f0ed; }
g.vtree-node rect.string-text { fill: #e7f0db; }
g.vtree-node rect.boolean-text { fill: #e1d8f0; }
g.vtree-node rect.null-text { fill: #888; }
</style><g class="vtree-root" transform="translate(160.19760906070707,-27.837343588478376)scale(0.6606692028291351)"><g class="vtree-node" transform="translate(480,185)"><g class="vtree-node" transform="translate(-43,0)"><path class="vtree-link" d="M43,12C43,59.5 629,59.5 629,107"/><path class="vtree-link" d="M43,12C43,55 116,55 116,98"/><path class="vtree-link" d="M43,12C43,65 -595,65 -595,118"/><g class="vtree-node" transform="translate(-513,74)"><path class="vtree-link" d="M-82,44C-82,44 76,44 76,44"/><g class="vtree-node" transform="translate(-153,0)"><g transform="translate(0,20)"><g transform="translate(0,0)"><rect class="string-text" x="0" y="0" width="44" height="24"/><text x="4" y="20">value</text></g><g transform="translate(44,0)"><rect class="string-text" x="0" y="0" width="98" height="24"/><text x="4" y="20">tweets.latitude</text></g><g transform="translate(0,24)"><rect class="string-text" x="0" y="0" width="44" height="24"/><text x="4" y="20">name</text></g><g transform="translate(44,24)"><rect class="string-text" x="0" y="0" width="98" height="24"/><text x="4" y="20">latitude</text></g></g><g><text x="71" y="16" text-anchor="middle">select[0]</text></g></g><g class="vtree-node" transform="translate(-1,0)"><g transform="translate(0,20)"><g transform="translate(0,0)"><rect class="string-text" x="0" y="0" width="44" height="25"/><text x="4" y="20">value</text></g><g transform="translate(44,0)"><rect class="string-text" x="0" y="0" width="110" height="25"/><text x="4" y="21">tweets.longitude</text></g><g transform="translate(0,25)"><rect class="string-text" x="0" y="0" width="44" height="25"/><text x="4" y="20">name</text></g><g transform="translate(44,25)"><rect class="string-text" x="0" y="0" width="110" height="25"/><text x="4" y="21">longitude</text></g></g><g><text x="77" y="16" text-anchor="middle">select[1]</text></g></g></g><g class="vtree-node" transform="translate(92,74)"><path class="vtree-link" d="M24,24C24,63 -114,63 -114,102"/><g class="vtree-node" transform="translate(24,78)"><path class="vtree-link" d="M-138,24C-138,24 332,24 332,24"/><g class="vtree-node" transform="translate(-162,0)"><path class="vtree-link" d="M24,24C24,63 -71,63 -71,102"/><g class="vtree-node" transform="translate(24,78)"><path class="vtree-link" d="M-95,24C-95,24 237,24 237,24"/><g class="vtree-node" transform="translate(-115,0)"><path class="vtree-link" d="M20,24C20,63 -59,63 -59,102"/><g class="vtree-node" transform="translate(20,78)"><path class="vtree-link" d="M-79,24C-79,24 158,24 158,24"/><g class="vtree-node" transform="translate(-117,0)"><path class="vtree-link" d="M38,24C38,67 -56,67 -56,110"/><g class="vtree-node" transform="translate(38,78)"><path class="vtree-link" d="M-94,32C-94,32 64,32 64,32"/><g class="vtree-node" transform="translate(-154,0)"><g transform="translate(0,20)"><rect class="string-text" x="0" y="0" width="119" height="24"/><text x="4" y="20">tweets.created_at</text></g><g><text x="60" y="16" text-anchor="middle">date_format[0]</text></g></g><g class="vtree-node" transform="translate(-25,0)"><g transform="translate(0,20)"><g transform="translate(0,0)"><rect class="string-text" x="0" y="0" width="42" height="24"/><text x="4" y="20">literal</text></g><g transform="translate(42,0)"><rect class="string-text" x="0" y="0" width="136" height="24"/><text x="4" y="20">%Y-%m-01 00:00:00</text></g></g><g><text x="89" y="16" text-anchor="middle">date_format[1]</text></g></g></g><g transform="translate(30,20)"><g transform="translate(0,0)"><rect class="string-text" x="0" y="0" width="8" height="8"/><text x="4" y="4"> </text></g><g transform="translate(8,0)"><rect class="string-text" x="0" y="0" width="8" height="8"/><text x="4" y="4"> </text></g></g><g><text x="38" y="16" text-anchor="middle">adddate[0]</text></g></g><g class="vtree-node" transform="translate(120,0)"><path class="vtree-link" d="M38,24C38,67 -1,67 -1,110"/><g class="vtree-node" transform="translate(38,78)"><path class="vtree-link" d="M-39,32C-39,32 40,32 40,32"/><g class="vtree-node" transform="translate(-74,0)"><g transform="translate(27,20)"><rect class="number-text" x="0" y="0" width="16" height="24"/><text x="4" y="20">0</text></g><g><text x="35" y="16" text-anchor="middle">interval[0]</text></g></g><g class="vtree-node" transform="translate(5,0)"><g transform="translate(8,20)"><rect class="string-text" x="0" y="0" width="54" height="24"/><text x="4" y="20">second</text></g><g><text x="35" y="16" text-anchor="middle">interval[1]</text></g></g></g><g transform="translate(30,20)"><g transform="translate(0,0)"><rect class="string-text" x="0" y="0" width="8" height="8"/><text x="4" y="4"> </text></g><g transform="translate(8,0)"><rect class="string-text" x="0" y="0" width="8" height="8"/><text x="4" y="4"> </text></g></g><g><text x="38" y="16" text-anchor="middle">adddate[1]</text></g></g></g><g transform="translate(12,20)"><g transform="translate(0,0)"><rect class="string-text" x="0" y="0" width="8" height="8"/><text x="4" y="4"> </text></g><g transform="translate(8,0)"><rect class="string-text" x="0" y="0" width="8" height="8"/><text x="4" y="4"> </text></g></g><g><text x="20" y="16" text-anchor="middle">eq[0]</text></g></g><g class="vtree-node" transform="translate(217,0)"><path class="vtree-link" d="M20,24C20,67 20,67 20,110"/><g class="vtree-node" transform="translate(-70,78)"><g transform="translate(0,20)"><g transform="translate(0,0)"><rect class="string-text" x="0" y="0" width="42" height="24"/><text x="4" y="20">literal</text></g><g transform="translate(42,0)"><rect class="string-text" x="0" y="0" width="138" height="24"/><text x="4" y="20">2017-03-01 00:00:00</text></g></g><g><text x="90" y="16" text-anchor="middle">timestamp</text></g></g><g transform="translate(12,20)"><g transform="translate(0,0)"><rect class="string-text" x="0" y="0" width="8" height="8"/><text x="4" y="4"> </text></g><g transform="translate(8,0)"><rect class="string-text" x="0" y="0" width="8" height="8"/><text x="4" y="4"> </text></g></g><g><text x="20" y="16" text-anchor="middle">eq[1]</text></g></g></g><g transform="translate(16,20)"><g transform="translate(0,0)"><rect class="string-text" x="0" y="0" width="8" height="8"/><text x="4" y="4"> </text></g><g transform="translate(8,0)"><rect class="string-text" x="0" y="0" width="8" height="8"/><text x="4" y="4"> </text></g></g><g><text x="24" y="16" text-anchor="middle">and[0]</text></g></g><g class="vtree-node" transform="translate(308,0)"><path class="vtree-link" d="M24,24C24,63.5 1,63.5 1,103"/><g class="vtree-node" transform="translate(24,78)"><path class="vtree-link" d="M-23,25C-23,25 115,25 115,25"/><g class="vtree-node" transform="translate(-41,0)"><path class="vtree-link" d="M18,25C18,68 -45,68 -45,111"/><g class="vtree-node" transform="translate(18,79)"><path class="vtree-link" d="M-63,32C-63,32 52,32 52,32"/><g class="vtree-node" transform="translate(-110,0)"><g transform="translate(0,20)"><g transform="translate(0,0)"><rect class="string-text" x="0" y="0" width="42" height="24"/><text x="4" y="20">literal</text></g><g transform="translate(42,0)"><rect class="string-text" x="0" y="0" width="51" height="24"/><text x="4" y="20">iphone</text></g></g><g><text x="47" y="16" text-anchor="middle">locate[0]</text></g></g><g class="vtree-node" transform="translate(-7,0)"><g transform="translate(0,20)"><g transform="translate(0,0)"><rect class="string-text" x="0" y="0" width="42" height="24"/><text x="4" y="20">lower</text></g><g transform="translate(42,0)"><rect class="string-text" x="0" y="0" width="75" height="24"/><text x="4" y="20">tweets.text</text></g></g><g><text x="59" y="16" text-anchor="middle">locate[1]</text></g></g></g><g transform="translate(10,21)"><g transform="translate(0,0)"><rect class="string-text" x="0" y="0" width="8" height="8"/><text x="4" y="4"> </text></g><g transform="translate(8,0)"><rect class="string-text" x="0" y="0" width="8" height="8"/><text x="4" y="4"> </text></g></g><g><text x="18" y="17" text-anchor="middle">gt[0]</text></g></g><g class="vtree-node" transform="translate(97,0)"><g transform="translate(10,21)"><rect class="number-text" x="0" y="0" width="16" height="24"/><text x="4" y="20">0</text></g><g><text x="18" y="17" text-anchor="middle">gt[1]</text></g></g></g><g transform="translate(16,20)"><g transform="translate(0,0)"><rect class="string-text" x="0" y="0" width="8" height="8"/><text x="4" y="4"> </text></g><g transform="translate(8,0)"><rect class="string-text" x="0" y="0" width="8" height="8"/><text x="4" y="4"> </text></g></g><g><text x="24" y="16" text-anchor="middle">and[1]</text></g></g></g><g transform="translate(16,20)"><g transform="translate(0,0)"><rect class="string-text" x="0" y="0" width="8" height="8"/><text x="4" y="4"> </text></g><g transform="translate(8,0)"><rect class="string-text" x="0" y="0" width="8" height="8"/><text x="4" y="4"> </text></g></g><g><text x="24" y="16" text-anchor="middle">where</text></g></g><g class="vtree-node" transform="translate(671,74)"><path class="vtree-link" d="M-42,33C-42,33 43,33 43,33"/><g class="vtree-node" transform="translate(-80,0)"><g transform="translate(9,21)"><g transform="translate(0,0)"><rect class="string-text" x="0" y="0" width="42" height="24"/><text x="4" y="20">value</text></g><g transform="translate(42,0)"><rect class="number-text" x="0" y="0" width="16" height="24"/><text x="4" y="20">1</text></g></g><g><text x="38" y="17" text-anchor="middle">groupby[0]</text></g></g><g class="vtree-node" transform="translate(5,0)"><g transform="translate(9,21)"><g transform="translate(0,0)"><rect class="string-text" x="0" y="0" width="42" height="24"/><text x="4" y="20">value</text></g><g transform="translate(42,0)"><rect class="number-text" x="0" y="0" width="16" height="24"/><text x="4" y="20">2</text></g></g><g><text x="38" y="17" text-anchor="middle">groupby[1]</text></g></g></g><g transform="translate(0,0)"><rect class="string-text" x="0" y="0" width="36" height="24"/><text x="4" y="20">from</text></g><g transform="translate(36,0)"><rect class="string-text" x="0" y="0" width="49" height="24"/><text x="4" y="20">tweets</text></g></g></g></g></svg>