<?xml version="1.0" standalone="no"?>
<svg xmlns:xlink="http://www.w3.org/1999/xlink" xmlns="http://www.w3.org/2000/svg" class="vtree" width="960" height="800"><style>
.vtree-node text { font: 14px sans-serif; }
.vtree-link { fill: none; stroke: #888; stroke-width: 2px; }
.vtree-table { stroke-width: 2px; stroke: steelblue; }
path.vtree-table { fill: white; }
g.vtree-node rect { fill: white; stroke: black; stroke-width: 1px; }
g.vtree-node rect.number-text { fill: #d8f0ed; }
g.vtree-node rect.string-text { fill: #e7f0db; }
g.vtree-node rect.boolean-text { fill: #e1d8f0; }
g.vtree-node rect.null-text { fill: #888; }
</style><g class="vtree-root"><g class="vtree-node" transform="translate(480,240)"><g class="vtree-node" transform="translate(-8,0)"><path class="vtree-link" d="M8,4C8,43 8,43 8,82"/><g class="vtree-node" transform="translate(-15,58)"><path class="vtree-link" d="M23,24C23,63 23,63 23,102"/><g class="vtree-node" transform="translate(2,78)"><path class="vtree-link" d="M21,24C21,67 -9,67 -9,110"/><g class="vtree-node" transform="translate(21,78)"><path class="vtree-link" d="M-30,24C-30,24 64,24 64,24"/><g class="vtree-node" transform="translate(-90,0)"><g transform="translate(0,20)"><rect class="string-text" x="0" y="0" width="119" height="24"/><text x="4" y="20">tweets.created_at</text></g><g><text x="60" y="16" text-anchor="middle">cast[0]</text></g></g><g class="vtree-node" transform="translate(39,0)"><path class="vtree-link" d="M25,24C25,63 25,63 25,102"/><g class="vtree-node" transform="translate(7,78)"><g transform="translate(10,20)"><g transform="translate(0,0)"><rect class="string-text" x="0" y="0" width="8" height="8"/><text x="4" y="4"> </text></g><g transform="translate(8,0)"><rect class="string-text" x="0" y="0" width="8" height="8"/><text x="4" y="4"> </text></g></g><g><text x="18" y="16" text-anchor="middle">date</text></g></g><g transform="translate(17,20)"><g transform="translate(0,0)"><rect class="string-text" x="0" y="0" width="8" height="8"/><text x="4" y="4"> </text></g><g transform="translate(8,0)"><rect class="string-text" x="0" y="0" width="8" height="8"/><text x="4" y="4"> </text></g></g><g><text x="25" y="16" text-anchor="middle">cast[1]</text></g></g></g><g transform="translate(13,20)"><g transform="translate(0,0)"><rect class="string-text" x="0" y="0" width="8" height="8"/><text x="4" y="4"> </text></g><g transform="translate(8,0)"><rect class="string-text" x="0" y="0" width="8" height="8"/><text x="4" y="4"> </text></g></g><g><text x="21" y="16" text-anchor="middle">value</text></g></g><g transform="translate(15,20)"><g transform="translate(0,0)"><rect class="string-text" x="0" y="0" width="8" height="8"/><text x="4" y="4"> </text></g><g transform="translate(8,0)"><rect class="string-text" x="0" y="0" width="8" height="8"/><text x="4" y="4"> </text></g></g><g><text x="23" y="16" text-anchor="middle">select</text></g></g><g transform="translate(0,0)"><rect class="string-text" x="0" y="0" width="8" height="8"/><text x="4" y="4"> </text></g><g transform="translate(8,0)"><rect class="string-text" x="0" y="0" width="8" height="8"/><text x="4" y="4"> </text></g></g></g></g></svg>